<?xml version="1.0" encoding="UTF-8" standalone="no"?>
<svg
   xmlns:dc="http://purl.org/dc/elements/1.1/"
   xmlns:cc="http://creativecommons.org/ns#"
   xmlns:rdf="http://www.w3.org/1999/02/22-rdf-syntax-ns#"
   xmlns:svg="http://www.w3.org/2000/svg"
   xmlns="http://www.w3.org/2000/svg"
   xmlns:sodipodi="http://sodipodi.sourceforge.net/DTD/sodipodi-0.dtd"
   xmlns:inkscape="http://www.inkscape.org/namespaces/inkscape"
   id="svg140"
   version="1.2"
   viewBox="0 0 669.42284 475.37869"
   height="633.83826"
   width="892.56378"
   sodipodi:docname="1_2_floorplan_to_graph_dark.svg"
   inkscape:version="0.92.4 (5573076, 2020-04-04)">
  <sodipodi:namedview
     pagecolor="#ffffff"
     bordercolor="#666666"
     borderopacity="1"
     objecttolerance="10"
     gridtolerance="10"
     guidetolerance="10"
     inkscape:pageopacity="0"
     inkscape:pageshadow="2"
     inkscape:window-width="1920"
     inkscape:window-height="1017"
     id="namedview76"
     showgrid="false"
     inkscape:zoom="0.31818454"
     inkscape:cx="54.999529"
     inkscape:cy="316.91913"
     inkscape:window-x="-8"
     inkscape:window-y="-8"
     inkscape:window-maximized="1"
     inkscape:current-layer="svg140" />
  <metadata
     id="metadata144">
    <rdf:RDF>
      <cc:Work
         rdf:about="">
        <dc:format>image/svg+xml</dc:format>
        <dc:type
           rdf:resource="http://purl.org/dc/dcmitype/StillImage" />
        <dc:title></dc:title>
      </cc:Work>
    </rdf:RDF>
  </metadata>
  <defs
     id="defs11">
    <clipPath
       id="clip1">
      <path
         id="path2"
         d="m 144,0 h 45.30859 V 46 H 144 Z m 0,0" />
    </clipPath>
    <clipPath
       id="clip2">
      <path
         id="path5"
         d="m 144,44 h 45.30859 V 61 H 144 Z m 0,0" />
    </clipPath>
    <clipPath
       id="clip3">
      <path
         id="path8"
         d="m 22,130 h 140 v 4.43359 H 22 Z m 0,0" />
    </clipPath>
  </defs>
  <path
     inkscape:connector-curvature="0"
     style="fill:none;stroke:#fffffa;stroke-width:1.23765624;stroke-linecap:butt;stroke-linejoin:miter;stroke-miterlimit:4;stroke-opacity:1"
     d="m 53.373926,106.1262 h 52.752334 v 52.75234 H 53.373926 Z m 0,0"
     id="path13" />
  <path
     inkscape:connector-curvature="0"
     style="fill:none;stroke:#fffffa;stroke-width:1.23765624;stroke-linecap:butt;stroke-linejoin:miter;stroke-miterlimit:4;stroke-opacity:1"
     d="M 53.373926,53.373867 H 106.12626 V 106.1262 H 53.373926 Z m 0,0"
     id="path15" />
  <path
     inkscape:connector-curvature="0"
     style="fill:none;stroke:#fffffa;stroke-width:1.23765624;stroke-linecap:butt;stroke-linejoin:miter;stroke-miterlimit:4;stroke-opacity:1"
     d="M 106.12626,53.373867 H 158.8786 V 158.87854 h -52.75234 z m 0,0"
     id="path17" />
  <path
     inkscape:connector-curvature="0"
     style="fill:none;stroke:#fffffa;stroke-width:1.23765624;stroke-linecap:butt;stroke-linejoin:miter;stroke-miterlimit:4;stroke-opacity:1"
     d="M 53.373926,158.86472 H 158.8786 v 52.75234 H 53.373926 Z m 0,0"
     id="path19" />
  <path
     inkscape:connector-curvature="0"
     style="fill:none;stroke:#fffffa;stroke-width:1.23765624;stroke-linecap:butt;stroke-linejoin:miter;stroke-miterlimit:4;stroke-opacity:1"
     d="m 510.54703,53.373867 h 52.7523 V 106.1262 h -52.7523 z m 0,0"
     id="path21" />
  <path
     inkscape:connector-curvature="0"
     style="fill:none;stroke:#fffffa;stroke-width:1.23765624;stroke-linecap:butt;stroke-linejoin:miter;stroke-miterlimit:4;stroke-opacity:1"
     d="m 510.54703,0.62153098 h 52.7523 V 53.373867 h -52.7523 z m 0,0"
     id="path23" />
  <path
     inkscape:connector-curvature="0"
     style="fill:none;stroke:#fffffa;stroke-width:1.23765624;stroke-linecap:butt;stroke-linejoin:miter;stroke-miterlimit:4;stroke-opacity:1"
     d="m 563.29933,0.62153098 h 52.75234 V 106.1262 h -52.75234 z m 0,0"
     id="path25" />
  <path
     inkscape:connector-curvature="0"
     style="fill:none;stroke:#fffffa;stroke-width:1.23765624;stroke-linecap:butt;stroke-linejoin:miter;stroke-miterlimit:4;stroke-opacity:1"
     d="m 457.79469,0.62153098 h 52.75234 V 106.1262 h -52.75234 z m 0,0"
     id="path27" />
  <path
     inkscape:connector-curvature="0"
     style="fill:#ffffff;fill-opacity:1;fill-rule:nonzero;stroke:none;stroke-width:3.53616071"
     d="m 60.515312,234.00814 h -2.265353 l -4.655023,12.77714 h 1.72664 l 1.256995,-3.56379 h 5.525251 l 1.256996,3.56379 h 1.80952 z m -3.425656,7.76298 2.251541,-6.28498 2.237728,6.28498 z m 247.931834,-1.11887 c -0.49727,-0.58015 -1.17412,-0.9531 -2.04434,-1.13267 v -0.0691 c 0.52489,-0.26245 0.92547,-0.59396 1.24318,-1.02217 0.30389,-0.4282 0.45583,-0.9531 0.45583,-1.56088 0,-0.5249 -0.0967,-0.99455 -0.31769,-1.38131 -0.20718,-0.38677 -0.55253,-0.70447 -1.02217,-0.95311 -0.4144,-0.20718 -0.85642,-0.35914 -1.32606,-0.42821 -0.46965,-0.0691 -1.16031,-0.0967 -2.0996,-0.0967 h -3.7848 v 12.77715 h 4.53071 c 0.89785,0 1.62995,-0.0691 2.19629,-0.23484 0.58015,-0.16574 1.10505,-0.4282 1.58851,-0.81497 0.41439,-0.3039 0.73209,-0.70447 0.96692,-1.20174 0.24862,-0.48346 0.35914,-1.03599 0.35914,-1.67139 0,-0.89785 -0.24863,-1.62995 -0.74591,-2.2101 m -2.27917,-2.59687 -0.56634,0.67685 -0.88404,0.33151 c -0.30389,0.0553 -0.73209,0.0829 -1.25699,0.0829 h -2.2101 v -3.6881 h 2.03053 c 0.56633,0 1.0498,0.0138 1.42275,0.0553 0.38677,0.0414 0.71828,0.13812 0.98073,0.29007 l 0.49728,0.51108 0.15194,0.78735 c 0,0.35914 -0.0553,0.69066 -0.16573,0.95311 m 1.03598,5.98108 c -0.15195,0.29007 -0.38677,0.53871 -0.70447,0.75972 -0.3039,0.20719 -0.69065,0.34535 -1.1603,0.42821 -0.48346,0.0691 -1.09124,0.1105 -1.83715,0.1105 h -2.25154 v -4.75171 h 2.67975 c 0.55253,0 1.03599,0.0276 1.42275,0.0691 0.38677,0.0414 0.7321,0.13812 0.99455,0.27628 0.41439,0.20718 0.69065,0.46964 0.8426,0.77353 0.16574,0.3039 0.23483,0.70447 0.23483,1.22937 0,0.44202 -0.0691,0.81498 -0.22101,1.10505 m 286.63619,-0.16574 h -0.12447 c -0.62159,0.56634 -1.29844,0.98074 -2.01675,1.257 -0.71826,0.29007 -1.47797,0.4282 -2.29295,0.4282 -0.59397,0 -1.16032,-0.1105 -1.69902,-0.3039 -0.53873,-0.20718 -1.00837,-0.5249 -1.40894,-0.93929 -0.37296,-0.41439 -0.69065,-0.93929 -0.93928,-1.58851 -0.2348,-0.6354 -0.35917,-1.42275 -0.35917,-2.3206 0,-0.85642 0.11033,-1.61614 0.33134,-2.26536 0.22101,-0.64922 0.52491,-1.20174 0.92548,-1.62994 0.40058,-0.44202 0.85643,-0.75973 1.38133,-0.96693 0.51109,-0.20718 1.09123,-0.31768 1.74043,-0.31768 0.80119,0 1.53328,0.13812 2.22393,0.40058 0.70447,0.27628 1.39512,0.70447 2.09959,1.29843 h 0.13827 v -2.01671 c -0.8426,-0.42821 -1.60231,-0.71829 -2.29295,-0.88404 -0.67686,-0.16574 -1.36751,-0.24863 -2.04436,-0.24863 -0.93928,0 -1.7957,0.15195 -2.56924,0.44202 -0.77353,0.29007 -1.43656,0.71828 -1.9753,1.27081 -0.55252,0.56633 -0.98072,1.2708 -1.28461,2.09959 -0.28997,0.82879 -0.44202,1.76808 -0.44202,2.81788 0,1.11886 0.15205,2.08578 0.45584,2.92838 0.31755,0.8426 0.74592,1.53326 1.29845,2.07197 0.55252,0.55253 1.21555,0.96692 1.97526,1.22937 0.75971,0.26246 1.60234,0.38677 2.52779,0.38677 0.48346,0 0.93931,-0.0414 1.35371,-0.11051 0.40058,-0.0829 0.78733,-0.17956 1.13267,-0.29007 0.4144,-0.12433 0.74592,-0.24862 1.00837,-0.37295 l 0.85639,-0.38677 v -1.98909"
     id="path29" />
  <path
     inkscape:connector-curvature="0"
     style="fill:#ffffff;fill-opacity:1;fill-rule:nonzero;stroke:none;stroke-width:3.53616071"
     d="m 83.776619,139.98218 h -2.61068 v -11.52015 h -1.326061 c -0.02758,0.37295 -0.110505,0.66303 -0.262454,0.88404 l -0.621589,0.55252 c -0.207184,0.11051 -0.524897,0.1934 -0.939293,0.24863 -0.414392,0.0691 -0.80116,0.0967 -1.160303,0.0967 v 1.1603 h 2.665933 v 8.57796 h -2.665933 v 1.29843 h 6.920376 v -1.29843"
     id="path31" />
  <path
     inkscape:connector-curvature="0"
     style="fill:#ffffff;fill-opacity:1;fill-rule:nonzero;stroke:none;stroke-width:3.53616071"
     d="m 84.508717,87.064086 h -6.878939 c 0.566337,-0.48346 1.174115,-0.994545 1.823333,-1.560882 0.66303,-0.566341 1.298436,-1.146491 1.906213,-1.754269 0.428204,-0.414395 0.787348,-0.787347 1.091235,-1.132678 0.303897,-0.345341 0.56634,-0.704467 0.78735,-1.049797 0.234837,-0.372952 0.414393,-0.773536 0.53871,-1.20174 0.124331,-0.414396 0.193392,-0.870228 0.193392,-1.353688 0,-1.091238 -0.372955,-1.94765 -1.118862,-2.583056 -0.745911,-0.62159 -1.76808,-0.939293 -3.080328,-0.939293 -0.635406,0 -1.298436,0.08289 -1.975279,0.248628 -0.676842,0.16574 -1.215555,0.345341 -1.629947,0.538713 v 1.809517 h 0.09668 c 0.566341,-0.372952 1.160303,-0.66303 1.76808,-0.8426 0.607778,-0.179566 1.174119,-0.27628 1.699016,-0.27628 0.773535,0 1.395125,0.193392 1.823333,0.566337 0.44202,0.372955 0.66303,0.897856 0.66303,1.560886 0,0.718283 -0.207184,1.395125 -0.607778,2.030527 -0.414392,0.621594 -1.160303,1.464193 -2.265353,2.527803 -0.524897,0.511085 -1.077422,1.022174 -1.6852,1.547071 -0.607777,0.511085 -1.201743,1.022173 -1.80952,1.54707 v 1.781893 h 8.660832 v -1.46419"
     id="path33" />
  <path
     inkscape:connector-curvature="0"
     style="fill:#ffffff;fill-opacity:1;fill-rule:nonzero;stroke:none;stroke-width:3.53616071"
     d="m 135.23052,106.44391 c -0.34534,-0.13813 -0.66303,-0.23484 -0.93929,-0.27629 v -0.12433 c 0.67684,-0.13812 1.27081,-0.46964 1.76808,-1.00835 0.49727,-0.5249 0.75972,-1.14649 0.75972,-1.85096 0,-0.5249 -0.11051,-0.98073 -0.31769,-1.3675 -0.22101,-0.38677 -0.5249,-0.71828 -0.93929,-0.99455 -0.38677,-0.24862 -0.81498,-0.44202 -1.28463,-0.55252 -0.48345,-0.11051 -1.03598,-0.16574 -1.65757,-0.16574 -0.6354,0 -1.28462,0.0829 -1.96146,0.24863 -0.67685,0.16574 -1.22937,0.35914 -1.62995,0.55252 v 1.79571 h 0.0829 c 0.53872,-0.35914 1.11887,-0.63541 1.74046,-0.82879 0.60777,-0.19339 1.18793,-0.29007 1.72664,-0.29007 0.35914,0 0.67684,0.0276 0.9531,0.0967 l 0.78735,0.3039 0.55253,0.56633 0.19339,0.81498 c 0,0.70447 -0.24863,1.22937 -0.77354,1.58851 -0.51108,0.35914 -1.21555,0.55252 -2.08578,0.55252 h -0.59399 v 1.42275 h 0.77354 c 0.4282,0 0.81497,0.0276 1.18793,0.0967 0.35914,0.0691 0.67684,0.1934 0.92547,0.35915 l 0.60778,0.71828 c 0.15195,0.29007 0.22101,0.67684 0.22101,1.13267 0,0.46965 -0.0691,0.8426 -0.19339,1.14649 l -0.58015,0.8426 c -0.26246,0.23484 -0.59397,0.40058 -0.99455,0.5249 -0.40058,0.12434 -0.78735,0.17957 -1.14649,0.17957 -0.62159,0 -1.25699,-0.1105 -1.90621,-0.31769 -0.66303,-0.20718 -1.22937,-0.46964 -1.71283,-0.78735 h -0.13812 v 1.7819 c 0.44202,0.20718 1.00836,0.38676 1.6852,0.56633 0.69066,0.16574 1.39512,0.24863 2.0996,0.24863 0.69065,0 1.32606,-0.0967 1.90621,-0.29007 0.58015,-0.19339 1.09123,-0.48346 1.51944,-0.88404 0.38677,-0.35914 0.67684,-0.78735 0.89785,-1.27081 0.20719,-0.49727 0.31769,-1.02217 0.31769,-1.61614 0,-0.58015 -0.0967,-1.06361 -0.26245,-1.43656 -0.17957,-0.37295 -0.41439,-0.67684 -0.69066,-0.92548 -0.23483,-0.22101 -0.53871,-0.40058 -0.89785,-0.55252"
     id="path35" />
  <path
     inkscape:connector-curvature="0"
     style="fill:#ffffff;fill-opacity:1;fill-rule:nonzero;stroke:none;stroke-width:3.53616071"
     d="m 109.41378,185.55169 h -1.89239 v -7.81823 h -1.5747 l -6.202096,7.21045 v 1.97528 h 6.119216 v 3.60522 h 1.65758 v -3.60522 h 1.89239 z m -8.49507,0 4.9451,-5.77389 v 5.77389 h -4.9451"
     id="path37" />
  <path
     inkscape:connector-curvature="0"
     style="fill:#ffffff;fill-opacity:1;fill-rule:nonzero;stroke:none;stroke-width:3.53616071"
     d="m 326.43183,90.752192 h -2.61068 v -11.52015 h -1.32606 c -0.0276,0.372955 -0.1105,0.66303 -0.26245,0.88404 l -0.62159,0.538713 c -0.20718,0.124331 -0.5249,0.207183 -0.93929,0.262454 -0.4144,0.06906 -0.80117,0.09668 -1.16031,0.09668 v 1.160303 h 2.66594 v 8.577955 h -2.66593 v 1.298439 h 6.92037 v -1.298432"
     id="path39" />
  <path
     inkscape:connector-curvature="0"
     style="fill:#ffffff;fill-opacity:1;fill-rule:nonzero;stroke:none;stroke-width:3.53616071"
     d="m 284.96483,143.33877 h -6.87894 c 0.56633,-0.48346 1.17411,-1.00836 1.82333,-1.5747 0.66303,-0.56634 1.28462,-1.14649 1.90621,-1.74045 0.42821,-0.4144 0.78735,-0.80116 1.09124,-1.14649 0.3039,-0.34534 0.56634,-0.69066 0.78735,-1.0498 0.23484,-0.37295 0.41439,-0.77353 0.53871,-1.18793 0.12433,-0.42821 0.19339,-0.88404 0.19339,-1.3675 0,-1.07742 -0.37295,-1.93384 -1.11886,-2.56924 -0.74591,-0.63541 -1.7819,-0.9531 -3.08033,-0.9531 -0.63541,0 -1.29844,0.0829 -1.97528,0.24862 -0.67684,0.16574 -1.21555,0.35915 -1.62995,0.55253 v 1.79571 h 0.0967 c 0.56634,-0.37296 1.16031,-0.64922 1.76808,-0.82879 0.60778,-0.19339 1.17412,-0.27628 1.69902,-0.27628 0.77353,0 1.39512,0.17956 1.82333,0.56634 0.44202,0.37295 0.66303,0.88404 0.66303,1.54707 0,0.73209 -0.20718,1.40893 -0.60778,2.03053 -0.41439,0.6354 -1.1603,1.478 -2.26535,2.54161 -0.5249,0.51109 -1.07742,1.02217 -1.6852,1.53326 -0.60778,0.51108 -1.20174,1.03598 -1.80952,1.54707 v 1.79571 h 8.66083 v -1.4642"
     id="path41" />
  <path
     inkscape:connector-curvature="0"
     style="fill:#ffffff;fill-opacity:1;fill-rule:nonzero;stroke:none;stroke-width:3.53616071"
     d="m 237.21284,81.82891 c -0.34534,-0.138123 -0.66303,-0.234837 -0.93929,-0.27628 v -0.124332 c 0.67684,-0.138122 1.27081,-0.469648 1.76808,-1.008357 0.51109,-0.524901 0.75972,-1.146491 0.75972,-1.850961 0,-0.524897 -0.1105,-0.980733 -0.31769,-1.367501 -0.22101,-0.386767 -0.52489,-0.718282 -0.93929,-0.994545 -0.38677,-0.248627 -0.81497,-0.44202 -1.28462,-0.552525 -0.48346,-0.110505 -1.03598,-0.16574 -1.65757,-0.16574 -0.63541,0 -1.28462,0.08289 -1.96147,0.248628 -0.67684,0.165739 -1.22937,0.359139 -1.62995,0.552525 v 1.795705 h 0.0829 c 0.55253,-0.35914 1.11886,-0.635403 1.74045,-0.828788 0.60778,-0.193393 1.18793,-0.290071 1.72664,-0.290071 0.35915,0 0.67685,0.02758 0.95311,0.08289 l 0.78735,0.317689 0.55252,0.566341 0.1934,0.814972 c 0,0.70447 -0.24863,1.229371 -0.77354,1.58851 -0.51108,0.359143 -1.21555,0.552525 -2.08578,0.552525 h -0.59396 v 1.422753 h 0.77353 c 0.42821,0 0.81498,0.02758 1.18793,0.09668 0.35914,0.06906 0.67684,0.193393 0.93929,0.35914 l 0.59397,0.718282 c 0.15195,0.290072 0.22101,0.676843 0.22101,1.132678 0,0.469645 -0.0553,0.8426 -0.1934,1.146487 l -0.58015,0.842604 c -0.26245,0.234836 -0.59396,0.40058 -0.99454,0.524897 -0.40058,0.124331 -0.78735,0.179566 -1.1465,0.179566 -0.62159,0 -1.25699,-0.110505 -1.90621,-0.317688 -0.66303,-0.207184 -1.22936,-0.469649 -1.71282,-0.787351 h -0.13813 v 1.781896 c 0.44202,0.207183 1.00837,0.386767 1.68521,0.552525 0.69065,0.179566 1.39512,0.262454 2.09959,0.262454 0.69066,0 1.33988,-0.09668 1.92003,-0.290072 0.56634,-0.193392 1.07742,-0.48346 1.50563,-0.88404 0.38677,-0.359139 0.67684,-0.787347 0.89785,-1.270808 0.20719,-0.497272 0.31769,-1.022169 0.31769,-1.616135 0,-0.580153 -0.0967,-1.06361 -0.26245,-1.436565 -0.17957,-0.372955 -0.4144,-0.676842 -0.67685,-0.92548 -0.24862,-0.22101 -0.55252,-0.40058 -0.91166,-0.552525"
     id="path43" />
  <path
     inkscape:connector-curvature="0"
     style="fill:#ffffff;fill-opacity:1;fill-rule:nonzero;stroke:none;stroke-width:3.53616071"
     d="m 380.20634,101.15348 h -1.90621 v -7.818236 h -1.57468 l -6.18829,7.210456 v 1.97528 h 6.11922 v 3.60522 h 1.64375 v -3.60522 h 1.90621 z m -8.50889,0 4.95893,-5.773893 v 5.773893 h -4.95893"
     id="path45" />
  <path
     inkscape:connector-curvature="0"
     style="fill:#ffffff;fill-opacity:1;fill-rule:nonzero;stroke:none;stroke-width:3.53616071"
     d="m 540.96353,87.229844 h -2.62451 V 75.709693 h -1.32606 c -0.0283,0.372956 -0.11033,0.66303 -0.26238,0.884041 l -0.62159,0.552525 c -0.20722,0.110505 -0.5249,0.193392 -0.92548,0.262453 -0.42819,0.05527 -0.81498,0.08289 -1.17411,0.08289 v 1.174115 h 2.66594 v 8.564139 h -2.66594 v 1.298432 h 6.9342 v -1.298432"
     id="path47" />
  <path
     inkscape:connector-curvature="0"
     style="fill:#ffffff;fill-opacity:1;fill-rule:nonzero;stroke:none;stroke-width:3.53616071"
     d="m 538.17328,34.31175 h -6.87896 c 0.56635,-0.48346 1.17411,-0.994545 1.82335,-1.560882 0.6492,-0.566337 1.28462,-1.146491 1.9062,-1.754268 0.4282,-0.414392 0.78736,-0.787348 1.09123,-1.132675 0.28996,-0.345331 0.56635,-0.70447 0.78736,-1.049798 0.2348,-0.372955 0.4144,-0.773535 0.5387,-1.201743 0.12447,-0.414395 0.17963,-0.870228 0.17963,-1.353688 0,-1.091234 -0.35916,-1.94765 -1.10505,-2.583052 -0.74591,-0.621594 -1.76808,-0.939293 -3.08035,-0.939293 -0.63541,0 -1.29844,0.08288 -1.97526,0.248635 -0.67686,0.165757 -1.22938,0.345327 -1.62996,0.538713 v 1.80952 h 0.0828 c 0.58014,-0.372955 1.17411,-0.66303 1.78187,-0.842603 0.60779,-0.17957 1.17415,-0.276263 1.69902,-0.276263 0.77353,0 1.38133,0.193386 1.82335,0.566341 0.44202,0.372952 0.66303,0.897852 0.66303,1.560883 0,0.718282 -0.20722,1.395125 -0.62159,2.03053 -0.40057,0.62159 -1.14649,1.46419 -2.25154,2.5278 -0.52491,0.511088 -1.07743,1.022173 -1.68519,1.54707 -0.6078,0.511089 -1.20177,1.022173 -1.80953,1.547071 v 1.781896 h 8.66084 V 34.31175"
     id="path49" />
  <path
     inkscape:connector-curvature="0"
     style="fill:#ffffff;fill-opacity:1;fill-rule:nonzero;stroke:none;stroke-width:3.53616071"
     d="m 483.39041,53.705382 c -0.34548,-0.151949 -0.66303,-0.248628 -0.93931,-0.290072 v -0.124331 c 0.67686,-0.138122 1.27082,-0.469648 1.76808,-0.994545 0.49729,-0.538713 0.74592,-1.146491 0.74592,-1.864773 0,-0.524901 -0.0965,-0.980733 -0.30376,-1.367501 -0.22101,-0.386767 -0.5387,-0.718282 -0.9531,-0.994545 -0.37296,-0.248627 -0.80115,-0.428208 -1.27079,-0.552525 -0.48346,-0.110505 -1.03599,-0.16574 -1.65758,-0.16574 -0.63541,0 -1.28461,0.08289 -1.9753,0.248628 -0.66303,0.179566 -1.21555,0.359139 -1.61613,0.552525 v 1.795708 h 0.0827 c 0.5387,-0.345341 1.11888,-0.62159 1.74046,-0.814975 0.60776,-0.193393 1.1879,-0.290072 1.72664,-0.290072 0.35913,0 0.67682,0.02758 0.9531,0.08289 l 0.78736,0.303898 0.55253,0.580153 0.19342,0.801159 c 0,0.704471 -0.26238,1.229368 -0.77353,1.602323 -0.52487,0.359143 -1.21556,0.538713 -2.08577,0.538713 h -0.59397 v 1.422753 h 0.77354 c 0.42819,0 0.81498,0.02758 1.18793,0.09668 0.35914,0.06906 0.67683,0.193392 0.92549,0.372955 l 0.60776,0.70447 c 0.13826,0.303898 0.22101,0.676843 0.22101,1.132675 0,0.469648 -0.069,0.856416 -0.19343,1.160303 l -0.58014,0.828788 c -0.26238,0.234836 -0.59397,0.414395 -0.99455,0.5249 -0.4144,0.124332 -0.78732,0.179566 -1.16028,0.179566 -0.6078,0 -1.24321,-0.09668 -1.90624,-0.317688 -0.6492,-0.207184 -1.21556,-0.469645 -1.69898,-0.787348 h -0.13827 v 1.795709 c 0.44202,0.193392 0.99455,0.372951 1.68523,0.552525 0.69065,0.16574 1.39512,0.248627 2.0996,0.248627 0.69064,0 1.32606,-0.09668 1.9062,-0.290071 0.58014,-0.193393 1.09122,-0.48346 1.51945,-0.88404 0.38675,-0.359143 0.67682,-0.787348 0.89783,-1.270808 0.20722,-0.48346 0.31755,-1.022173 0.31755,-1.602323 0,-0.593965 -0.0965,-1.077425 -0.27617,-1.450377 -0.16585,-0.372956 -0.40058,-0.676846 -0.67686,-0.925481 -0.2348,-0.22101 -0.5387,-0.40058 -0.89783,-0.538713 m 107.82528,1.726641 h -1.90624 v -7.818229 h -1.57468 l -6.18829,7.210451 v 1.97526 h 6.11922 v 3.605226 h 1.64375 v -3.605226 h 1.90624 z m -8.50888,0 4.95889,-5.773886 v 5.773886 h -4.95889"
     id="path51" />
  <path
     inkscape:connector-curvature="0"
     style="fill:#ffffff;fill-opacity:1;fill-rule:nonzero;stroke:none;stroke-width:3.53616071"
     d="m 643.19446,100.18656 c -0.26238,-0.497277 -0.60776,-0.911669 -1.0636,-1.21556 -0.44202,-0.303897 -0.91166,-0.511084 -1.43657,-0.621589 -0.52487,-0.124332 -1.13267,-0.179567 -1.82331,-0.179567 l -0.66303,0.01379 -0.75975,0.05527 v -3.398028 h 6.03637 v -1.505634 h -7.69394 v 6.588865 c 0.34548,-0.06906 0.74591,-0.138123 1.20176,-0.207184 0.46964,-0.06906 0.9531,-0.110505 1.46418,-0.110505 0.52491,0 0.99455,0.05527 1.42274,0.138123 0.42823,0.08289 0.78736,0.234836 1.09126,0.455839 l 0.62159,0.73209 c 0.15205,0.3039 0.2348,0.67685 0.2348,1.11887 0,0.45583 -0.069,0.8426 -0.19343,1.18793 -0.13826,0.34534 -0.31755,0.64921 -0.58014,0.88404 -0.28997,0.29007 -0.63542,0.49727 -1.00837,0.60777 -0.38679,0.11051 -0.77354,0.16574 -1.18794,0.16574 -0.60776,0 -1.21556,-0.0967 -1.85097,-0.31768 -0.62159,-0.20719 -1.17411,-0.45584 -1.64375,-0.75973 h -0.12447 v 1.82333 c 0.45584,0.20719 0.99454,0.37296 1.64378,0.5249 0.63542,0.13813 1.31224,0.22101 2.01671,0.22101 0.74592,0 1.40895,-0.1105 1.97526,-0.33151 0.56636,-0.20719 1.06365,-0.51109 1.47801,-0.91167 0.37296,-0.37296 0.67686,-0.8426 0.88404,-1.38131 0.22101,-0.53872 0.33134,-1.10505 0.33134,-1.71283 0,-0.74591 -0.12447,-1.3675 -0.37296,-1.86477"
     id="path53" />
  <path
     inkscape:connector-curvature="0"
     style="fill:#ffffff;fill-opacity:1;fill-rule:nonzero;stroke:none;stroke-width:3.53616071"
     d="m 594.24074,187.95517 c -0.24863,-0.53871 -0.63538,-0.98073 -1.13267,-1.32606 -0.44202,-0.3039 -0.87021,-0.51108 -1.27079,-0.60778 -0.42823,-0.0967 -0.89787,-0.15195 -1.43657,-0.15195 -0.62158,0 -1.16032,0.0829 -1.62995,0.23484 -0.46964,0.15195 -0.93931,0.37296 -1.40895,0.66303 0.11033,-1.31224 0.53873,-2.34823 1.27082,-3.12176 0.7321,-0.77354 1.71281,-1.16031 2.9422,-1.16031 0.34548,0 0.66303,0.0414 0.99454,0.12433 0.31755,0.0691 0.56632,0.15195 0.73209,0.24863 h 0.0828 v -1.64376 l -0.70448,-0.16574 c -0.22101,-0.0276 -0.51108,-0.0414 -0.84259,-0.0414 -1.06361,0 -1.98909,0.19339 -2.79028,0.55252 -0.78733,0.35914 -1.43657,0.87023 -1.94765,1.51945 -0.52487,0.67684 -0.91165,1.45037 -1.16028,2.33441 -0.2348,0.87023 -0.35913,1.87859 -0.35913,3.01126 0,1.10505 0.13826,2.04435 0.40057,2.8317 0.26239,0.78735 0.63538,1.40894 1.13267,1.8924 0.40058,0.37295 0.8426,0.66303 1.3675,0.85641 0.51109,0.20718 1.09123,0.3039 1.71281,0.3039 1.24321,0 2.29299,-0.4144 3.14941,-1.24319 0.85643,-0.81497 1.28462,-1.87858 1.28462,-3.17702 0,-0.75972 -0.12447,-1.40894 -0.38678,-1.93383 m -2.07195,4.18538 c -0.46967,0.51108 -1.11887,0.75971 -1.96147,0.75971 -0.35913,0 -0.69065,-0.0553 -0.99454,-0.16574 l -0.85643,-0.55252 c -0.33134,-0.3039 -0.58014,-0.71828 -0.77353,-1.24318 -0.17964,-0.5249 -0.27618,-1.24318 -0.27618,-2.14104 l 0.0141,-0.44202 0.0283,-0.37295 c 0.44202,-0.23484 0.87021,-0.41439 1.28461,-0.5249 0.41437,-0.12433 0.87022,-0.17956 1.35368,-0.17956 0.34548,0 0.69065,0.0276 1.00837,0.0829 0.31755,0.0691 0.60776,0.17957 0.88404,0.37296 0.35914,0.24863 0.60776,0.55252 0.77354,0.89785 0.15205,0.35914 0.2348,0.80116 0.2348,1.32606 0,0.95311 -0.2348,1.6852 -0.71827,2.18248"
     id="path55" />
  <path
     inkscape:connector-curvature="0"
     style="fill:none;stroke:#fffffa;stroke-width:1.23765624;stroke-linecap:butt;stroke-linejoin:miter;stroke-miterlimit:4;stroke-opacity:1"
     d="M 264.38326,158.87854 H 211.63093 V 0.62153098 H 352.30382 V 53.373867 h -87.92056 z m 0,0"
     id="path57" />
  <path
     inkscape:connector-curvature="0"
     style="fill:none;stroke:#fffffa;stroke-width:1.23765624;stroke-linecap:butt;stroke-linejoin:miter;stroke-miterlimit:4;stroke-opacity:1"
     d="m 299.55149,53.373867 v 70.336443 h 52.75233 v 35.16823 h -87.92056"
     id="path59" />
  <path
     inkscape:connector-curvature="0"
     style="fill:none;stroke:#fffffa;stroke-width:1.23765624;stroke-linecap:butt;stroke-linejoin:miter;stroke-miterlimit:4;stroke-opacity:1"
     d="M 352.29001,53.373867 V 123.71031"
     id="path61" />
  <path
     inkscape:connector-curvature="0"
     style="fill:none;stroke:#fffffa;stroke-width:1.23765624;stroke-linecap:butt;stroke-linejoin:miter;stroke-miterlimit:4;stroke-opacity:1"
     d="m 352.29001,0.62153098 h 52.75234 V 158.87854 h -52.75234"
     id="path63" />
  <path
     inkscape:connector-curvature="0"
     style="fill:none;stroke:#fffffa;stroke-width:1.23765624;stroke-linecap:butt;stroke-linejoin:miter;stroke-miterlimit:4;stroke-opacity:1"
     d="M 53.373926,53.373867 H 0.62158986 V 211.63087 H 53.373926"
     id="path65" />
  <path
     inkscape:connector-curvature="0"
     style="fill:none;stroke:#fffffa;stroke-width:1.23765624;stroke-linecap:butt;stroke-linejoin:miter;stroke-miterlimit:4;stroke-opacity:1"
     d="m 211.63093,158.87854 v 52.75233 h 193.41142 v -52.75233"
     id="path67" />
  <path
     inkscape:connector-curvature="0"
     style="fill:#ffffff;fill-opacity:1;fill-rule:nonzero;stroke:none;stroke-width:3.53616071"
     d="m 27.764389,135.35478 c -0.262451,-0.49727 -0.607778,-0.91167 -1.063614,-1.21555 -0.44202,-0.3039 -0.925477,-0.51109 -1.436565,-0.62159 -0.524897,-0.12434 -1.132675,-0.17957 -1.823333,-0.17957 l -0.676842,0.0138 -0.745908,0.0553 v -3.39803 h 6.036336 v -1.50563 h -7.693911 v 6.58886 c 0.331515,-0.0691 0.732095,-0.13812 1.20174,-0.20718 0.469648,-0.0691 0.953108,-0.11051 1.464193,-0.11051 0.524897,0 0.994545,0.0553 1.422753,0.13812 0.428204,0.0829 0.787347,0.23484 1.091234,0.45584 l 0.621594,0.73209 c 0.151941,0.3039 0.234822,0.67685 0.234822,1.11887 0,0.45583 -0.06907,0.8426 -0.193386,1.18792 -0.138129,0.34535 -0.317699,0.63541 -0.580149,0.88404 -0.290075,0.29008 -0.635406,0.48347 -1.008358,0.60778 -0.386767,0.11051 -0.773535,0.16574 -1.18793,0.16574 -0.607778,0 -1.215556,-0.1105 -1.850958,-0.31769 -0.621593,-0.20719 -1.174118,-0.45583 -1.643763,-0.75972 h -0.124317 v 1.82334 c 0.44202,0.20718 0.994545,0.37295 1.643759,0.52489 0.635406,0.13813 1.312249,0.22101 2.016719,0.22101 0.745907,0 1.408937,-0.1105 1.975278,-0.33151 0.566337,-0.20718 1.06361,-0.51109 1.478002,-0.91167 0.372955,-0.37295 0.676846,-0.8426 0.88404,-1.38131 0.22101,-0.53871 0.331515,-1.10505 0.331515,-1.71283 0,-0.74591 -0.124317,-1.3675 -0.372951,-1.86477"
     id="path69" />
  <path
     inkscape:connector-curvature="0"
     style="fill:none;stroke:#fffffa;stroke-width:1.23765624;stroke-linecap:butt;stroke-linejoin:miter;stroke-miterlimit:4;stroke-opacity:1"
     d="m 70.958036,299.53762 v 70.33646 l 70.322634,-35.16824 z m 0,0"
     id="path71" />
  <path
     inkscape:connector-curvature="0"
     style="fill:none;stroke:#fffffa;stroke-width:1.23765624;stroke-linecap:butt;stroke-linejoin:miter;stroke-miterlimit:4;stroke-opacity:1"
     d="M 141.28067,334.70584 88.528335,422.62641 70.958036,369.87408"
     id="path73" />
  <path
     inkscape:connector-curvature="0"
     style="fill:none;stroke:#fffffa;stroke-width:1.23765624;stroke-linecap:butt;stroke-linejoin:miter;stroke-miterlimit:4;stroke-opacity:1"
     d="m 70.958036,299.53762 -52.752332,70.33646 70.336447,52.75233"
     id="path75" />
  <path
     inkscape:connector-curvature="0"
     style="fill:none;stroke:#fffffa;stroke-width:1.23765624;stroke-linecap:butt;stroke-linejoin:miter;stroke-miterlimit:4;stroke-opacity:1"
     d="M 70.958036,369.87408 H 18.205704"
     id="path77" />
  <path
     inkscape:connector-curvature="0"
     style="fill:none;stroke:#fffffa;stroke-width:1.23765624;stroke-linecap:butt;stroke-linejoin:miter;stroke-miterlimit:4;stroke-opacity:1"
     d="m 246.78534,299.53762 v 123.08879 l 70.33645,-70.33646 z m 0,0"
     id="path79" />
  <path
     inkscape:connector-curvature="0"
     style="fill:none;stroke:#fffffa;stroke-width:1.23765624;stroke-linecap:butt;stroke-linejoin:miter;stroke-miterlimit:4;stroke-opacity:1"
     d="m 246.78534,299.53762 35.16822,52.75233 -35.16822,70.33646"
     id="path81" />
  <path
     inkscape:connector-curvature="0"
     style="fill:none;stroke:#fffffa;stroke-width:1.23765624;stroke-linecap:butt;stroke-linejoin:miter;stroke-miterlimit:4;stroke-opacity:1"
     d="m 281.95356,352.28995 h 87.92057"
     id="path83" />
  <path
     inkscape:connector-curvature="0"
     style="fill:none;stroke:#fffffa;stroke-width:1.23765624;stroke-linecap:butt;stroke-linejoin:miter;stroke-miterlimit:4;stroke-opacity:1"
     d="m 246.78534,299.53762 123.08879,52.75233 -123.08879,70.33646"
     id="path85" />
  <path
     inkscape:connector-curvature="0"
     style="fill:#ffffff;fill-opacity:1;fill-rule:nonzero;stroke:none;stroke-width:3.53616071"
     d="m 83.776619,354.50005 h -2.61068 V 342.9799 h -1.326061 c -0.02758,0.37296 -0.110505,0.67685 -0.262454,0.88404 l -0.621589,0.55253 c -0.207184,0.1105 -0.524897,0.19339 -0.939293,0.26245 -0.414392,0.0553 -0.80116,0.0829 -1.160303,0.0829 v 1.17412 h 2.665933 v 8.56412 h -2.665933 v 1.31224 h 6.920376 v -1.31224"
     id="path87" />
  <path
     inkscape:connector-curvature="0"
     style="fill:#ffffff;fill-opacity:1;fill-rule:nonzero;stroke:none;stroke-width:3.53616071"
     d="m 270.17097,361.53093 h -2.61068 v -11.52014 h -1.33988 c -0.0138,0.37295 -0.11051,0.67684 -0.26245,0.89785 l -0.6216,0.53871 c -0.20718,0.12433 -0.52489,0.20718 -0.92547,0.26245 -0.4144,0.0553 -0.80117,0.0967 -1.16031,0.0967 v 1.16031 h 2.65212 v 8.56414 h -2.65212 v 1.31227 h 6.92038 v -1.31227"
     id="path89" />
  <path
     inkscape:connector-curvature="0"
     style="fill:none;stroke:#fffffa;stroke-width:1.23765624;stroke-linecap:butt;stroke-linejoin:miter;stroke-miterlimit:4;stroke-opacity:1"
     d="m 545.71524,299.53762 v 70.33646 L 492.9629,334.70584 Z m 0,0"
     id="path91" />
  <path
     id="path93"
     d="m 510.54703,106.1262 v 52.75234 H 668.80401 V 0.62153098 h -52.75234"
     style="clip-rule:nonzero;fill:none;stroke:#fffffa;stroke-width:1.23765624;stroke-linecap:butt;stroke-linejoin:miter;stroke-miterlimit:4;stroke-opacity:1"
     inkscape:connector-curvature="0" />
  <path
     id="path97"
     d="m 510.54703,158.87854 v 52.75233 h 158.25698 v -52.75233"
     style="clip-rule:nonzero;fill:none;stroke:#fffffa;stroke-width:1.23765624;stroke-linecap:butt;stroke-linejoin:miter;stroke-miterlimit:4;stroke-opacity:1"
     inkscape:connector-curvature="0" />
  <path
     inkscape:connector-curvature="0"
     style="fill:none;stroke:#fffffa;stroke-width:1.23765624;stroke-linecap:butt;stroke-linejoin:miter;stroke-miterlimit:4;stroke-opacity:1"
     d="m 545.71524,299.53762 52.75234,35.16822 -52.75234,35.16824 h 87.92056 l -35.16822,-35.16824"
     id="path101" />
  <path
     inkscape:connector-curvature="0"
     style="fill:none;stroke:#fffffa;stroke-width:1.23765624;stroke-linecap:butt;stroke-linejoin:miter;stroke-miterlimit:4;stroke-opacity:1"
     d="m 633.6358,369.87408 v 52.75233"
     id="path103" />
  <path
     inkscape:connector-curvature="0"
     style="fill:#ffffff;fill-opacity:1;fill-rule:nonzero;stroke:none;stroke-width:3.53616071"
     d="m 551.50295,386.15976 h -2.61068 v -11.52018 h -1.32606 c -0.0283,0.35917 -0.11033,0.66303 -0.26238,0.88404 l -0.62159,0.53874 c -0.20722,0.12447 -0.52491,0.20722 -0.93931,0.26238 -0.4144,0.069 -0.80115,0.0965 -1.16029,0.0965 v 1.16028 h 2.66592 v 8.57799 h -2.66592 v 1.2984 h 6.92038 v -1.2984"
     id="path105" />
  <path
     inkscape:connector-curvature="0"
     style="fill:#ffffff;fill-opacity:1;fill-rule:nonzero;stroke:none;stroke-width:3.53616071"
     d="m 552.23504,294.55108 h -6.87893 c 0.56632,-0.48346 1.1879,-0.99455 1.82331,-1.56089 0.66303,-0.56633 1.29845,-1.14649 1.90621,-1.75426 0.42823,-0.4144 0.78736,-0.78735 1.09126,-1.14649 0.30375,-0.33152 0.56631,-0.67685 0.78732,-1.03599 0.24859,-0.37295 0.42823,-0.77353 0.55253,-1.20174 0.11033,-0.42821 0.17963,-0.87023 0.17963,-1.35369 0,-1.09123 -0.37292,-1.94765 -1.11884,-2.58305 -0.74591,-0.63541 -1.76808,-0.93929 -3.08035,-0.93929 -0.63537,0 -1.2984,0.0829 -1.97526,0.24863 -0.67686,0.16573 -1.21556,0.34534 -1.61613,0.53871 v 1.80952 h 0.0827 c 0.56632,-0.37296 1.16029,-0.66303 1.76808,-0.8426 0.62159,-0.17957 1.17412,-0.27629 1.69902,-0.27629 0.77354,0 1.39513,0.1934 1.83715,0.56635 0.42819,0.37295 0.6492,0.89785 0.6492,1.54707 0,0.73209 -0.20722,1.40893 -0.60776,2.04434 -0.4144,0.62159 -1.16032,1.46419 -2.25154,2.5278 -0.52491,0.51109 -1.09126,1.02217 -1.69902,1.54707 -0.59397,0.51109 -1.20177,1.02217 -1.7957,1.53326 v 1.80952 h 8.64701 v -1.47801"
     id="path107" />
  <path
     inkscape:connector-curvature="0"
     style="fill:#ffffff;fill-opacity:1;fill-rule:nonzero;stroke:none;stroke-width:3.53616071"
     d="m 77.477833,291.04254 h -6.878936 c 0.566337,-0.48346 1.174115,-1.00836 1.823333,-1.57469 0.649217,-0.56634 1.28462,-1.14649 1.906209,-1.74046 0.428208,-0.4282 0.787351,-0.80116 1.091238,-1.14649 0.290072,-0.34534 0.566338,-0.69066 0.787348,-1.04979 0.234836,-0.37296 0.414395,-0.77354 0.538713,-1.18794 0.124331,-0.4282 0.193392,-0.88404 0.193392,-1.36749 0,-1.07743 -0.372955,-1.93384 -1.118866,-2.56925 -0.745907,-0.6354 -1.781892,-0.9531 -3.080325,-0.9531 -0.635405,0 -1.298435,0.0829 -1.975278,0.24863 -0.676842,0.16574 -1.229367,0.35914 -1.629951,0.55252 v 1.80952 h 0.08289 c 0.58015,-0.38677 1.174115,-0.66303 1.781893,-0.8426 0.607777,-0.17956 1.174115,-0.27628 1.699015,-0.27628 0.773535,0 1.381313,0.17957 1.823333,0.56634 0.44202,0.37295 0.66303,0.88404 0.66303,1.54707 0,0.73209 -0.207183,1.40894 -0.607777,2.03053 -0.414396,0.6354 -1.160303,1.47801 -2.265353,2.54162 -0.524901,0.51108 -1.077426,1.02217 -1.685204,1.53325 -0.607777,0.51109 -1.201739,1.03599 -1.809517,1.54707 v 1.79571 h 8.660829 v -1.46419"
     id="path109" />
  <path
     inkscape:connector-curvature="0"
     style="fill:#ffffff;fill-opacity:1;fill-rule:nonzero;stroke:none;stroke-width:3.53616071"
     d="m 253.31895,438.74632 h -6.87894 c 0.56634,-0.48346 1.17412,-1.00837 1.82333,-1.57469 0.64922,-0.55252 1.28463,-1.14649 1.89241,-1.74046 0.4282,-0.4144 0.80115,-0.80115 1.10505,-1.14649 0.29007,-0.34549 0.56633,-0.69065 0.78734,-1.04978 0.23484,-0.37296 0.41439,-0.77354 0.53872,-1.18794 0.12433,-0.42823 0.17956,-0.88404 0.17956,-1.3675 0,-1.07744 -0.35914,-1.93386 -1.11886,-2.56924 -0.7321,-0.63541 -1.76808,-0.9531 -3.06652,-0.9531 -0.64921,0 -1.29843,0.0827 -1.97527,0.24859 -0.67685,0.16585 -1.22937,0.35914 -1.62995,0.55253 v 1.80952 h 0.0829 c 0.58015,-0.38678 1.17411,-0.66303 1.78189,-0.84259 0.60778,-0.17964 1.17412,-0.27618 1.6852,-0.27618 0.78735,0 1.39513,0.17964 1.83715,0.56635 0.44202,0.37296 0.66303,0.88404 0.66303,1.54707 0,0.73209 -0.20719,1.40892 -0.62159,2.03054 -0.40058,0.63538 -1.14649,1.47797 -2.25154,2.54161 -0.5249,0.51108 -1.09124,1.02217 -1.6852,1.53325 -0.60778,0.51108 -1.20175,1.03599 -1.80952,1.54707 v 1.7957 h 8.66083 v -1.46419"
     id="path111" />
  <path
     inkscape:connector-curvature="0"
     style="fill:#ffffff;fill-opacity:1;fill-rule:nonzero;stroke:none;stroke-width:3.53616071"
     d="m 251.28842,285.80737 c -0.35914,-0.15195 -0.67684,-0.23484 -0.95311,-0.29007 v -0.11051 c 0.69066,-0.13812 1.27081,-0.48346 1.7819,-1.00836 0.49727,-0.5249 0.74591,-1.14649 0.74591,-1.86477 0,-0.51109 -0.11051,-0.96692 -0.31769,-1.35369 -0.20718,-0.40058 -0.5249,-0.73209 -0.93929,-1.00835 -0.37296,-0.24863 -0.81498,-0.42821 -1.28462,-0.53872 -0.46965,-0.1105 -1.02218,-0.17956 -1.64377,-0.17956 -0.6354,0 -1.29843,0.0829 -1.97527,0.26245 -0.67685,0.16574 -1.21556,0.34534 -1.62995,0.55253 v 1.7957 h 0.0829 c 0.55252,-0.35914 1.13267,-0.6354 1.74045,-0.82879 0.60778,-0.19339 1.18793,-0.29007 1.74045,-0.29007 0.34535,0 0.66303,0.0276 0.9393,0.0829 l 0.80116,0.3039 0.55252,0.58015 0.1934,0.80116 c 0,0.70447 -0.26246,1.24318 -0.77354,1.60232 -0.52489,0.35914 -1.21555,0.53871 -2.08578,0.53871 h -0.60778 v 1.43657 h 0.77354 c 0.4282,0 0.81497,0.0276 1.18793,0.0967 0.37295,0.0553 0.67684,0.17957 0.93929,0.35914 l 0.60778,0.70447 c 0.13812,0.3039 0.22101,0.67684 0.22101,1.14649 0,0.45584 -0.0691,0.8426 -0.20719,1.14649 l -0.58015,0.82879 c -0.24862,0.23483 -0.58015,0.41439 -0.98073,0.53871 -0.41439,0.11051 -0.80116,0.17957 -1.1603,0.17957 -0.60778,0 -1.24318,-0.11051 -1.90621,-0.31769 -0.66303,-0.20719 -1.22937,-0.48346 -1.71283,-0.80116 h -0.13812 v 1.7957 c 0.44202,0.1934 1.00835,0.38677 1.69901,0.55253 0.69066,0.16574 1.38131,0.24863 2.0996,0.24863 0.69065,0 1.32606,-0.0967 1.90621,-0.27628 0.58015,-0.1934 1.07742,-0.49728 1.51944,-0.89786 0.37295,-0.35914 0.67684,-0.78735 0.88404,-1.2708 0.22101,-0.48347 0.31769,-1.02218 0.31769,-1.60233 0,-0.59396 -0.0829,-1.06361 -0.26245,-1.45038 -0.17957,-0.35914 -0.40059,-0.67684 -0.67685,-0.92548 -0.24863,-0.20718 -0.55252,-0.40058 -0.89785,-0.53871"
     id="path113" />
  <path
     inkscape:connector-curvature="0"
     style="fill:#ffffff;fill-opacity:1;fill-rule:nonzero;stroke:none;stroke-width:3.53616071"
     d="m 152.81463,335.03736 c -0.35914,-0.13813 -0.66303,-0.23484 -0.93929,-0.29008 v -0.1105 c 0.67684,-0.13812 1.27081,-0.46965 1.76808,-1.00836 0.49727,-0.5249 0.74591,-1.14649 0.74591,-1.85096 0,-0.5249 -0.0967,-0.98073 -0.31769,-1.3675 -0.20718,-0.38677 -0.51109,-0.71828 -0.92548,-0.99455 -0.38677,-0.24862 -0.81498,-0.44202 -1.29844,-0.55252 -0.46964,-0.11051 -1.02217,-0.17957 -1.64376,-0.17957 -0.6354,0 -1.29843,0.0967 -1.96146,0.26246 -0.69066,0.16574 -1.22937,0.34534 -1.62995,0.55252 v 1.7957 h 0.0829 c 0.53871,-0.35914 1.11886,-0.63541 1.72664,-0.82879 0.62159,-0.19339 1.20174,-0.29007 1.74045,-0.29007 0.35914,0 0.67685,0.0276 0.95311,0.0829 l 0.78735,0.31768 0.55252,0.56634 0.19339,0.81498 c 0,0.69065 -0.24862,1.22936 -0.77353,1.58851 -0.51109,0.35914 -1.21556,0.55252 -2.08578,0.55252 h -0.59397 v 1.42276 h 0.77354 c 0.41439,0 0.81497,0.0276 1.17411,0.0967 0.37296,0.0691 0.69066,0.1934 0.9393,0.35915 l 0.60777,0.71828 c 0.15195,0.29007 0.22101,0.67684 0.22101,1.13267 0,0.45584 -0.0691,0.84261 -0.19339,1.1465 l -0.59396,0.8426 c -0.24863,0.22101 -0.58015,0.40058 -0.98073,0.5249 -0.40059,0.12433 -0.78735,0.17956 -1.16031,0.17956 -0.60777,0 -1.24318,-0.1105 -1.8924,-0.31769 -0.66303,-0.20718 -1.24318,-0.48345 -1.72664,-0.80116 h -0.12433 v 1.79571 c 0.44202,0.20718 1.00836,0.38677 1.6852,0.55252 0.69066,0.16574 1.39513,0.26246 2.0996,0.26246 0.69065,0 1.32606,-0.0967 1.90621,-0.29007 0.58015,-0.1934 1.09124,-0.49728 1.51944,-0.88404 0.38677,-0.37296 0.67685,-0.78735 0.89786,-1.28462 0.20718,-0.48346 0.31769,-1.02218 0.31769,-1.60233 0,-0.58015 -0.0967,-1.06361 -0.27628,-1.43656 -0.16574,-0.37296 -0.40058,-0.67685 -0.67685,-0.92548 -0.24862,-0.22101 -0.53871,-0.40058 -0.89785,-0.55253"
     id="path115" />
  <path
     inkscape:connector-curvature="0"
     style="fill:#ffffff;fill-opacity:1;fill-rule:nonzero;stroke:none;stroke-width:3.53616071"
     d="m 486.91274,335.03736 c -0.35913,-0.13813 -0.67682,-0.23484 -0.9531,-0.29008 v -0.1105 c 0.69065,-0.13812 1.27083,-0.46965 1.78191,-1.00836 0.49725,-0.5249 0.74588,-1.14649 0.74588,-1.85096 0,-0.5249 -0.11033,-0.98073 -0.31755,-1.3675 -0.20721,-0.38677 -0.5249,-0.71828 -0.93927,-0.99455 -0.37296,-0.24862 -0.81498,-0.44202 -1.28465,-0.55252 -0.46964,-0.11051 -1.02217,-0.17957 -1.64375,-0.17957 -0.63541,0 -1.29844,0.0967 -1.97527,0.26246 -0.67685,0.16574 -1.21555,0.34534 -1.62995,0.55252 v 1.7957 h 0.0965 c 0.53874,-0.35914 1.11888,-0.63541 1.72664,-0.82879 0.6078,-0.19339 1.18794,-0.29007 1.74046,-0.29007 0.34549,0 0.66303,0.0276 0.9531,0.0829 l 0.78737,0.31768 0.55252,0.56634 0.19343,0.81498 c 0,0.69065 -0.26238,1.22936 -0.77354,1.58851 -0.5249,0.35914 -1.21555,0.55252 -2.0858,0.55252 h -0.60776 v 1.42276 h 0.77353 c 0.4282,0 0.81498,0.0276 1.18794,0.0967 0.37293,0.0691 0.67682,0.1934 0.93928,0.35915 l 0.60779,0.71828 c 0.13827,0.29007 0.22101,0.67684 0.22101,1.13267 0,0.45584 -0.069,0.84261 -0.20722,1.1465 l -0.58017,0.84261 c -0.2486,0.22101 -0.58015,0.40058 -0.98072,0.5249 -0.41441,0.12433 -0.80119,0.17956 -1.16032,0.17956 -0.60776,0 -1.24318,-0.1105 -1.90621,-0.31769 -0.64923,-0.20718 -1.22938,-0.48345 -1.71284,-0.80116 h -0.12447 v 1.79571 c 0.44202,0.20718 0.99454,0.38677 1.68519,0.55252 0.69065,0.16574 1.38129,0.26246 2.09959,0.26246 0.69065,0 1.32606,-0.0967 1.90621,-0.29007 0.58014,-0.1934 1.09126,-0.49728 1.51945,-0.88404 0.37296,-0.37296 0.67686,-0.78735 0.88404,-1.28462 0.22101,-0.48346 0.31755,-1.02218 0.31755,-1.60233 0,-0.58015 -0.0828,-1.06361 -0.26239,-1.43656 -0.17963,-0.37296 -0.40057,-0.67685 -0.67682,-0.92548 -0.24859,-0.22101 -0.55252,-0.40058 -0.89786,-0.55253"
     id="path117" />
  <path
     inkscape:connector-curvature="0"
     style="fill:#ffffff;fill-opacity:1;fill-rule:nonzero;stroke:none;stroke-width:3.53616071"
     d="m 91.829673,435.23778 h -1.892397 v -7.80441 h -1.574699 l -6.202093,7.21044 v 1.96147 h 6.133028 v 3.60522 h 1.643764 v -3.60522 h 1.892397 z m -8.495074,0 4.958913,-5.77388 v 5.77388 h -4.958913"
     id="path119" />
  <path
     inkscape:connector-curvature="0"
     style="fill:#ffffff;fill-opacity:1;fill-rule:nonzero;stroke:none;stroke-width:3.53616071"
     d="m 323.93166,343.80869 h -1.8924 v -7.81823 h -1.5747 l -6.20209,7.21045 v 1.97528 h 6.13303 v 3.60523 h 1.64376 v -3.60523 h 1.8924 z m -8.49508,0 4.95892,-5.77389 v 5.77389 h -4.95892"
     id="path121" />
  <path
     inkscape:connector-curvature="0"
     style="fill:#ffffff;fill-opacity:1;fill-rule:nonzero;stroke:none;stroke-width:3.53616071"
     d="m 608.79978,329.73311 h -1.9062 v -7.80441 h -1.57469 l -6.18828,7.21045 v 1.97528 h 6.11922 v 3.59141 h 1.64375 v -3.59141 h 1.9062 z m -8.50888,0 4.95893,-5.76007 v 5.76007 h -4.95893"
     id="path123" />
  <path
     inkscape:connector-curvature="0"
     style="fill:#ffffff;fill-opacity:1;fill-rule:nonzero;stroke:none;stroke-width:3.53616071"
     d="m 382.95517,349.87265 c -0.24859,-0.49727 -0.60779,-0.89785 -1.06364,-1.21555 -0.44202,-0.3039 -0.92545,-0.51109 -1.43657,-0.62159 -0.52487,-0.12433 -1.13266,-0.17957 -1.82331,-0.17957 l -0.66303,0.0276 -0.75971,0.0414 v -3.39803 h 6.03633 v -1.50563 h -7.69391 v 6.58886 c 0.34549,-0.0691 0.7321,-0.13812 1.20173,-0.20718 0.46964,-0.0691 0.9531,-0.0967 1.46419,-0.0967 0.5249,0 0.99454,0.0414 1.42277,0.12433 0.42819,0.0967 0.78733,0.24863 1.09122,0.46965 l 0.63542,0.71828 c 0.13826,0.3039 0.22101,0.67684 0.22101,1.11886 0,0.45584 -0.069,0.85642 -0.19343,1.18793 -0.13826,0.34535 -0.31755,0.64922 -0.58014,0.88404 -0.28997,0.28997 -0.62159,0.49726 -1.00838,0.60776 -0.38675,0.11033 -0.77353,0.17964 -1.18793,0.17964 -0.60776,0 -1.21556,-0.11033 -1.85094,-0.31755 -0.62162,-0.20722 -1.17414,-0.46963 -1.64378,-0.75971 h -0.12447 v 1.80953 c 0.45581,0.20722 0.99454,0.38675 1.64375,0.52487 0.63541,0.15206 1.32606,0.22101 2.0167,0.22101 0.74592,0 1.40895,-0.11033 1.9753,-0.31755 0.58015,-0.22101 1.06361,-0.5249 1.47798,-0.92548 0.37296,-0.37296 0.67685,-0.82877 0.89786,-1.38131 0.20722,-0.53871 0.31755,-1.10505 0.31755,-1.69901 0,-0.75972 -0.12447,-1.3675 -0.37292,-1.87859"
     id="path125" />
  <path
     inkscape:connector-curvature="0"
     style="fill:#ffffff;fill-opacity:1;fill-rule:nonzero;stroke:none;stroke-width:3.53616071"
     d="m 10.180274,370.97913 c -0.2624465,-0.49729 -0.6215896,-0.9117 -1.0774219,-1.22939 -0.4282079,-0.28996 -0.9116682,-0.49725 -1.4227531,-0.62158 -0.5248971,-0.11033 -1.1326747,-0.16585 -1.8233328,-0.16585 l -0.6768424,0.0141 -0.7459107,0.0552 v -3.41186 h 6.0363399 v -1.4918 H 2.7764378 v 6.58885 c 0.3315151,-0.0827 0.7320984,-0.13826 1.201743,-0.20722 0.4696481,-0.069 0.9531049,-0.11032 1.4503775,-0.11032 0.5387129,0 1.008361,0.0414 1.4365653,0.13826 0.4282078,0.0827 0.7873509,0.2348 1.0774257,0.45581 l 0.6354021,0.73209 c 0.1519453,0.30376 0.2348259,0.67686 0.2348259,1.11888 0,0.44202 -0.069068,0.8426 -0.1933856,1.18794 -0.1381295,0.34548 -0.3177028,0.63541 -0.5801496,0.88404 -0.2900783,0.28996 -0.6354056,0.48346 -1.008361,0.60776 -0.3867675,0.11033 -0.7735351,0.16584 -1.1879272,0.16584 -0.6077776,0 -1.2155552,-0.11033 -1.8509609,-0.31754 -0.6354021,-0.20722 -1.1741149,-0.45582 -1.6437595,-0.75971 H 2.2239127 v 1.82335 c 0.4420201,0.19343 0.9945452,0.37292 1.6437631,0.52487 0.6354056,0.13826 1.312248,0.22101 2.0167184,0.22101 0.7459071,0 1.4089372,-0.11033 1.9752746,-0.33134 0.5663409,-0.20722 1.0636135,-0.52487 1.4780055,-0.92548 0.3729554,-0.35913 0.6630297,-0.82877 0.8840407,-1.36747 0.22101,-0.53873 0.331515,-1.10505 0.331515,-1.71285 0,-0.74591 -0.124318,-1.3675 -0.372956,-1.86476"
     id="path127" />
  <path
     inkscape:connector-curvature="0"
     style="fill:#ffffff;fill-opacity:1;fill-rule:nonzero;stroke:none;stroke-width:3.53616071"
     d="m 646.70301,367.45676 c -0.2486,-0.49726 -0.60776,-0.89783 -1.06361,-1.21556 -0.42819,-0.30376 -0.91166,-0.51108 -1.43657,-0.62159 -0.51108,-0.12447 -1.11887,-0.17963 -1.80952,-0.17963 l -0.67682,0.0141 -0.74592,0.0552 v -3.39804 h 6.03633 v -1.50563 h -7.70773 v 6.58886 c 0.34548,-0.069 0.74592,-0.13826 1.21555,-0.20722 0.46964,-0.0689 0.95311,-0.11033 1.4504,-0.11033 0.5249,0 1.00833,0.0552 1.43656,0.13827 0.42819,0.0965 0.78733,0.24859 1.07743,0.45584 l 0.63538,0.73209 c 0.15206,0.30376 0.22101,0.67686 0.22101,1.11888 0,0.45581 -0.0552,0.85639 -0.19343,1.1879 -0.12447,0.34549 -0.30375,0.64924 -0.56635,0.88404 -0.28996,0.28997 -0.63541,0.49729 -1.02216,0.6078 -0.37296,0.11033 -0.77354,0.16584 -1.17411,0.16584 -0.6078,0 -1.22938,-0.0965 -1.85097,-0.30375 -0.63541,-0.20722 -1.18794,-0.46967 -1.64378,-0.75975 h -0.12448 v 1.80953 c 0.44202,0.20722 0.99455,0.38678 1.64375,0.52491 0.63541,0.15205 1.31227,0.22101 2.01671,0.22101 0.74592,0 1.40895,-0.11033 1.9753,-0.31755 0.56631,-0.22101 1.06361,-0.52491 1.46418,-0.92549 0.38679,-0.37295 0.67686,-0.8288 0.89787,-1.3675 0.22101,-0.55252 0.33134,-1.11888 0.33134,-1.71285 0,-0.7597 -0.13827,-1.38129 -0.38679,-1.87858"
     id="path129" />
  <path
     inkscape:connector-curvature="0"
     style="fill:#ffffff;fill-opacity:1;fill-rule:nonzero;stroke:none;stroke-width:3.53616071"
     d="m 309.09636,188.10712 c -0.24864,-0.49728 -0.60778,-0.91167 -1.06361,-1.21556 -0.42821,-0.30389 -0.91167,-0.51109 -1.43657,-0.6354 -0.51108,-0.11051 -1.11886,-0.16576 -1.80952,-0.16576 l -0.67684,0.0138 -0.75972,0.0553 v -3.39803 h 6.03634 v -1.50563 h -7.69392 v 6.58886 c 0.34534,-0.0691 0.74591,-0.13812 1.21556,-0.20718 0.45583,-0.0691 0.95311,-0.1105 1.45038,-0.1105 0.5249,0 1.00836,0.0553 1.43656,0.13812 0.42821,0.0829 0.78735,0.23483 1.07743,0.45583 l 0.6354,0.73209 c 0.15195,0.3039 0.22101,0.67685 0.22101,1.11887 0,0.45583 -0.0553,0.8426 -0.19339,1.18793 -0.12433,0.34534 -0.31769,0.6354 -0.56634,0.88404 -0.29007,0.29007 -0.6354,0.48346 -1.02217,0.60778 -0.37295,0.1105 -0.77354,0.16574 -1.17412,0.16574 -0.60777,0 -1.22936,-0.11051 -1.85095,-0.31769 -0.63541,-0.20719 -1.18793,-0.45584 -1.65758,-0.75973 h -0.1105 v 1.82334 c 0.44202,0.20718 0.98072,0.37295 1.62994,0.5249 0.64922,0.13812 1.32606,0.22101 2.01672,0.22101 0.75972,0 1.42275,-0.11051 1.98909,-0.33152 0.56634,-0.20718 1.06361,-0.51108 1.46419,-0.91167 0.38677,-0.37295 0.67684,-0.8426 0.89785,-1.38131 0.22101,-0.53871 0.33152,-1.10505 0.33152,-1.71283 0,-0.7459 -0.13812,-1.36749 -0.38677,-1.86477"
     id="path131" />
  <path
     inkscape:connector-curvature="0"
     style="fill:#ffffff;fill-opacity:1;fill-rule:nonzero;stroke:none;stroke-width:3.53616071"
     d="m 646.99308,416.53481 c -0.2486,-0.52491 -0.63538,-0.96693 -1.13267,-1.31223 -0.44202,-0.30376 -0.87021,-0.51112 -1.28462,-0.6078 -0.4144,-0.0965 -0.88404,-0.15205 -1.43656,-0.15205 -0.6078,0 -1.1465,0.0689 -1.61613,0.22101 -0.46964,0.15205 -0.93931,0.37296 -1.40895,0.67685 0.11033,-1.31226 0.5387,-2.36204 1.27082,-3.12175 0.73209,-0.77354 1.71281,-1.16032 2.9422,-1.16032 0.34548,0 0.66303,0.0414 0.99454,0.12447 0.31755,0.0689 0.56632,0.15205 0.71827,0.2348 h 0.0965 v -1.64375 l -0.70447,-0.15205 c -0.22101,-0.0283 -0.51108,-0.0414 -0.8426,-0.0414 -1.06364,0 -1.98909,0.17964 -2.79028,0.53874 -0.78732,0.37292 -1.43656,0.87021 -1.94764,1.51942 -0.52491,0.69068 -0.91166,1.46421 -1.16029,2.33443 -0.2348,0.88404 -0.35917,1.87858 -0.35917,3.02508 0,1.10505 0.13827,2.04432 0.40062,2.83168 0.26238,0.78736 0.63537,1.40895 1.13266,1.87859 0.40058,0.38675 0.8426,0.67685 1.36751,0.87021 0.51108,0.19343 1.09122,0.28997 1.71281,0.28997 1.24317,0 2.29299,-0.40058 3.14941,-1.22935 0.85639,-0.81498 1.28462,-1.87858 1.28462,-3.17703 0,-0.75971 -0.13827,-1.40895 -0.38679,-1.94764 m -2.07194,4.19919 c -0.48347,0.51108 -1.11888,0.75971 -1.96148,0.75971 -0.35913,0 -0.69064,-0.0552 -0.99454,-0.17964 l -0.85642,-0.55253 c -0.33134,-0.30375 -0.58015,-0.71826 -0.77354,-1.24317 -0.17964,-0.51108 -0.27617,-1.22938 -0.27617,-2.14104 l 0.0141,-0.44202 0.0283,-0.35913 c 0.44202,-0.24859 0.87025,-0.4144 1.28465,-0.53873 0.41437,-0.11033 0.87022,-0.16585 1.35368,-0.16585 0.34548,0 0.67682,0.0283 1.00834,0.0827 0.31754,0.0552 0.60779,0.17963 0.87025,0.35913 0.35913,0.26238 0.62158,0.56635 0.78732,0.91166 0.15206,0.34548 0.22101,0.78736 0.22101,1.32606 0,0.9531 -0.22101,1.6714 -0.70444,2.18248"
     id="path133" />
  <path
     id="path135"
     d="m 88.928918,465.77861 c -0.497272,-0.89787 -1.174118,-1.62996 -2.044343,-2.16866 -0.511088,-0.31755 -1.132678,-0.56635 -1.864773,-0.74592 -0.732095,-0.17963 -1.72664,-0.27617 -2.969823,-0.27617 h -3.190834 v 12.79093 h 3.218462 c 1.174115,0 2.12722,-0.0827 2.845502,-0.2348 0.718283,-0.16585 1.367501,-0.42823 1.94765,-0.78736 0.842604,-0.52491 1.519446,-1.257 2.030531,-2.19628 0.497273,-0.93931 0.745911,-2.00291 0.745911,-3.1632 0,-1.24321 -0.234837,-2.30681 -0.718283,-3.21847 m -1.533258,5.6772 c -0.317689,0.67682 -0.787347,1.20173 -1.422753,1.61613 -0.511085,0.33134 -1.077422,0.55253 -1.6852,0.66303 -0.607777,0.12447 -1.312248,0.17964 -2.141035,0.17964 h -1.588511 v -9.86257 h 1.588511 c 0.787347,0 1.464189,0.0552 2.044342,0.16585 0.566338,0.11033 1.091238,0.31755 1.602323,0.59397 0.690655,0.40057 1.215555,0.93931 1.560883,1.62996 0.345341,0.69064 0.5249,1.53324 0.5249,2.52779 0,0.99454 -0.165739,1.83714 -0.48346,2.48638 m 223.88317,2.41728 h -6.72699 v -4.75172 h 6.72699 v -1.51945 h -6.72699 v -3.49472 h 6.72699 v -1.51941 h -8.42601 v 12.79093 h 8.42601 z m 258.44362,-11.2853 h -8.16355 v 12.79093 h 1.6852 v -6.16063 h 5.56669 v -1.50566 h -5.56669 v -3.60523 h 6.47835 v -1.51941"
     style="clip-rule:nonzero;fill:#ffffff;fill-opacity:1;fill-rule:nonzero;stroke:none;stroke-width:3.53616071"
     inkscape:connector-curvature="0" />
</svg>
