<?xml version="1.0" encoding="UTF-8" standalone="no"?>
<svg
   xmlns:dc="http://purl.org/dc/elements/1.1/"
   xmlns:cc="http://creativecommons.org/ns#"
   xmlns:rdf="http://www.w3.org/1999/02/22-rdf-syntax-ns#"
   xmlns:svg="http://www.w3.org/2000/svg"
   xmlns="http://www.w3.org/2000/svg"
   id="svg140"
   version="1.2"
   viewBox="0 0 669.42284 475.37869"
   height="633.83826"
   width="892.56378">
  <metadata
     id="metadata144">
    <rdf:RDF>
      <cc:Work
         rdf:about="">
        <dc:format>image/svg+xml</dc:format>
        <dc:type
           rdf:resource="http://purl.org/dc/dcmitype/StillImage" />
        <dc:title></dc:title>
      </cc:Work>
    </rdf:RDF>
  </metadata>
  <defs
     id="defs11">
    <clipPath
       id="clip1">
      <path
         id="path2"
         d="m 144,0 h 45.30859 V 46 H 144 Z m 0,0" />
    </clipPath>
    <clipPath
       id="clip2">
      <path
         id="path5"
         d="m 144,44 h 45.30859 V 61 H 144 Z m 0,0" />
    </clipPath>
    <clipPath
       id="clip3">
      <path
         id="path8"
         d="m 22,130 h 140 v 4.43359 H 22 Z m 0,0" />
    </clipPath>
  </defs>
  <rect
     y="0"
     x="0"
     height="475.37436"
     width="669.41595"
     id="rect951"
     style="opacity:1;fill:#ffffff;fill-opacity:1;stroke:none;stroke-width:3.28337073;stroke-linecap:round;stroke-linejoin:round;stroke-miterlimit:4;stroke-dasharray:none;stroke-dashoffset:0;stroke-opacity:1" />
  <g
     transform="matrix(3.5361607,0,0,3.5361607,0,-5.8886719e-5)"
     id="surface48">
    <path
       id="path13"
       transform="scale(1,-1)"
       d="M 15.09375,-30.011719 H 30.011719 V -44.929688 H 15.09375 Z m 0,0"
       style="fill:none;stroke:#111111;stroke-width:0.34999999;stroke-linecap:butt;stroke-linejoin:miter;stroke-miterlimit:4;stroke-opacity:1" />
    <path
       id="path15"
       transform="scale(1,-1)"
       d="M 15.09375,-15.09375 H 30.011719 V -30.011719 H 15.09375 Z m 0,0"
       style="fill:none;stroke:#111111;stroke-width:0.34999999;stroke-linecap:butt;stroke-linejoin:miter;stroke-miterlimit:4;stroke-opacity:1" />
    <path
       id="path17"
       transform="scale(1,-1)"
       d="M 30.011719,-15.09375 H 44.929688 V -44.929688 H 30.011719 Z m 0,0"
       style="fill:none;stroke:#111111;stroke-width:0.34999999;stroke-linecap:butt;stroke-linejoin:miter;stroke-miterlimit:4;stroke-opacity:1" />
    <path
       id="path19"
       transform="scale(1,-1)"
       d="M 15.09375,-44.925781 H 44.929688 V -59.84375 H 15.09375 Z m 0,0"
       style="fill:none;stroke:#111111;stroke-width:0.34999999;stroke-linecap:butt;stroke-linejoin:miter;stroke-miterlimit:4;stroke-opacity:1" />
    <path
       id="path21"
       transform="scale(1,-1)"
       d="m 144.37891,-15.09375 h 14.91796 v -14.917969 h -14.91796 z m 0,0"
       style="fill:none;stroke:#111111;stroke-width:0.34999999;stroke-linecap:butt;stroke-linejoin:miter;stroke-miterlimit:4;stroke-opacity:1" />
    <path
       id="path23"
       transform="scale(1,-1)"
       d="m 144.37891,-0.175781 h 14.91796 V -15.09375 h -14.91796 z m 0,0"
       style="fill:none;stroke:#111111;stroke-width:0.34999999;stroke-linecap:butt;stroke-linejoin:miter;stroke-miterlimit:4;stroke-opacity:1" />
    <path
       id="path25"
       transform="scale(1,-1)"
       d="m 159.29687,-0.175781 h 14.91797 v -29.835938 h -14.91797 z m 0,0"
       style="fill:none;stroke:#111111;stroke-width:0.34999999;stroke-linecap:butt;stroke-linejoin:miter;stroke-miterlimit:4;stroke-opacity:1" />
    <path
       id="path27"
       transform="scale(1,-1)"
       d="m 129.46094,-0.175781 h 14.91797 v -29.835938 h -14.91797 z m 0,0"
       style="fill:none;stroke:#111111;stroke-width:0.34999999;stroke-linecap:butt;stroke-linejoin:miter;stroke-miterlimit:4;stroke-opacity:1" />
    <path
       id="path29"
       d="m 17.113281,66.175781 h -0.640625 l -1.316406,3.613282 h 0.488281 L 16,68.78125 h 1.5625 l 0.355469,1.007813 h 0.511719 z m -0.96875,2.195313 0.636719,-1.777344 0.632813,1.777344 z m 70.113282,-0.316406 c -0.140625,-0.164063 -0.332032,-0.269532 -0.578125,-0.320313 v -0.01953 c 0.148437,-0.07422 0.261718,-0.167969 0.351562,-0.289063 0.08594,-0.121093 0.128906,-0.269531 0.128906,-0.441406 0,-0.148437 -0.02734,-0.28125 -0.08984,-0.390625 -0.05859,-0.109375 -0.15625,-0.199219 -0.289063,-0.269531 -0.117187,-0.05859 -0.242187,-0.101563 -0.375,-0.121094 -0.132812,-0.01953 -0.328125,-0.02734 -0.59375,-0.02734 h -1.070312 v 3.613282 h 1.28125 c 0.253906,0 0.460937,-0.01953 0.621093,-0.06641 0.164063,-0.04687 0.3125,-0.121093 0.449219,-0.230468 0.117188,-0.08594 0.207031,-0.199219 0.273438,-0.339844 0.07031,-0.136719 0.101562,-0.292969 0.101562,-0.472656 0,-0.253907 -0.07031,-0.460938 -0.210937,-0.625 m -0.644532,-0.734375 -0.160156,0.191406 -0.25,0.09375 c -0.08594,0.01563 -0.207031,0.02344 -0.355469,0.02344 h -0.625 v -1.042968 h 0.574219 c 0.160156,0 0.296875,0.0039 0.402344,0.01563 0.109375,0.01172 0.203125,0.03906 0.277344,0.08203 l 0.140625,0.144531 0.04297,0.222656 c 0,0.101563 -0.01563,0.195313 -0.04687,0.269532 m 0.292969,1.691406 c -0.04297,0.08203 -0.109375,0.152344 -0.199219,0.214844 -0.08594,0.05859 -0.195312,0.09766 -0.328125,0.121093 -0.136718,0.01953 -0.308593,0.03125 -0.519531,0.03125 h -0.636719 v -1.34375 h 0.757813 c 0.15625,0 0.292969,0.0078 0.402344,0.01953 0.109375,0.01172 0.207031,0.03906 0.28125,0.07813 0.117187,0.05859 0.195312,0.132812 0.238281,0.21875 0.04687,0.08594 0.06641,0.199218 0.06641,0.347656 0,0.125 -0.01953,0.230469 -0.0625,0.3125 m 81.058586,-0.04687 h -0.0352 c -0.17578,0.160156 -0.36719,0.277344 -0.57032,0.355469 -0.20312,0.08203 -0.41796,0.121093 -0.64843,0.121093 -0.16797,0 -0.32813,-0.03125 -0.48047,-0.08594 -0.15235,-0.05859 -0.28516,-0.148438 -0.39844,-0.265625 -0.10547,-0.117188 -0.19531,-0.265625 -0.26562,-0.449219 -0.0664,-0.179687 -0.10157,-0.402344 -0.10157,-0.65625 0,-0.242187 0.0312,-0.457031 0.0937,-0.640625 0.0625,-0.183594 0.14844,-0.339844 0.26172,-0.460937 0.11328,-0.125 0.24219,-0.214844 0.39063,-0.273438 0.14453,-0.05859 0.30859,-0.08984 0.49218,-0.08984 0.22657,0 0.4336,0.03906 0.62891,0.113282 0.19922,0.07813 0.39453,0.199218 0.59375,0.367187 h 0.0391 v -0.570312 c -0.23828,-0.121094 -0.45312,-0.203125 -0.64843,-0.25 -0.19141,-0.04687 -0.38672,-0.07031 -0.57813,-0.07031 -0.26562,0 -0.50781,0.04297 -0.72656,0.125 -0.21875,0.08203 -0.40625,0.203125 -0.5586,0.359375 -0.15625,0.160156 -0.27734,0.359375 -0.36328,0.59375 -0.082,0.234375 -0.125,0.5 -0.125,0.796875 0,0.316406 0.043,0.589844 0.12891,0.828125 0.0898,0.238281 0.21094,0.433594 0.36719,0.585938 0.15625,0.15625 0.34375,0.273437 0.55859,0.347656 0.21484,0.07422 0.45313,0.109375 0.71484,0.109375 0.13672,0 0.26563,-0.01172 0.38282,-0.03125 0.11328,-0.02344 0.22265,-0.05078 0.32031,-0.08203 0.11719,-0.03516 0.21094,-0.07031 0.28516,-0.105469 l 0.24218,-0.109375 v -0.5625"
       style="fill:#111111;fill-opacity:1;fill-rule:nonzero;stroke:none" />
    <path
       id="path31"
       d="m 23.691406,39.585938 h -0.738281 v -3.257813 h -0.375 c -0.0078,0.105469 -0.03125,0.1875 -0.07422,0.25 l -0.175781,0.15625 c -0.05859,0.03125 -0.148437,0.05469 -0.265625,0.07031 -0.117187,0.01953 -0.226562,0.02734 -0.328125,0.02734 v 0.328125 h 0.753906 v 2.425782 h -0.753906 v 0.367187 h 1.957031 v -0.367187"
       style="fill:#111111;fill-opacity:1;fill-rule:nonzero;stroke:none" />
    <path
       id="path33"
       d="m 23.898438,24.621094 h -1.945313 c 0.160156,-0.136719 0.332031,-0.28125 0.515625,-0.441406 0.1875,-0.160157 0.367188,-0.324219 0.539063,-0.496094 0.121093,-0.117188 0.222656,-0.222656 0.308593,-0.320313 0.08594,-0.09766 0.160157,-0.199218 0.222657,-0.296875 0.06641,-0.105468 0.117187,-0.21875 0.152343,-0.339843 0.03516,-0.117188 0.05469,-0.246094 0.05469,-0.382813 0,-0.308594 -0.105469,-0.550781 -0.316406,-0.730469 -0.210938,-0.175781 -0.5,-0.265625 -0.871094,-0.265625 -0.179688,0 -0.367188,0.02344 -0.558594,0.07031 -0.191406,0.04687 -0.34375,0.09766 -0.460937,0.152344 v 0.511718 h 0.02734 c 0.160157,-0.105468 0.328125,-0.1875 0.5,-0.238281 0.171875,-0.05078 0.332032,-0.07813 0.480469,-0.07813 0.21875,0 0.394531,0.05469 0.515625,0.160156 0.125,0.105469 0.1875,0.253907 0.1875,0.441407 0,0.203125 -0.05859,0.394531 -0.171875,0.574218 -0.117187,0.175782 -0.328125,0.414063 -0.640625,0.714844 -0.148437,0.144531 -0.304687,0.289063 -0.476562,0.4375 -0.171875,0.144531 -0.339844,0.289063 -0.511719,0.4375 v 0.503906 h 2.449219 v -0.414062"
       style="fill:#111111;fill-opacity:1;fill-rule:nonzero;stroke:none" />
    <path
       id="path35"
       d="m 38.242188,30.101563 c -0.09766,-0.03906 -0.1875,-0.06641 -0.265625,-0.07813 v -0.03516 c 0.191406,-0.03906 0.359375,-0.132812 0.5,-0.285156 0.140625,-0.148437 0.214843,-0.324219 0.214843,-0.523437 0,-0.148438 -0.03125,-0.277344 -0.08984,-0.386719 -0.0625,-0.109375 -0.148438,-0.203125 -0.265625,-0.28125 -0.109375,-0.07031 -0.230469,-0.125 -0.363282,-0.15625 -0.136718,-0.03125 -0.292968,-0.04687 -0.46875,-0.04687 -0.179687,0 -0.363281,0.02344 -0.554687,0.07031 -0.191406,0.04687 -0.347656,0.101563 -0.460938,0.15625 v 0.507813 h 0.02344 c 0.152344,-0.101563 0.316406,-0.179688 0.492187,-0.234375 0.171875,-0.05469 0.335938,-0.08203 0.488282,-0.08203 0.101562,0 0.191406,0.0078 0.269531,0.02734 l 0.222656,0.08594 0.15625,0.160156 0.05469,0.230469 c 0,0.199219 -0.07031,0.347656 -0.21875,0.449219 -0.144532,0.101562 -0.34375,0.15625 -0.589844,0.15625 H 37.21875 v 0.402343 h 0.21875 c 0.121094,0 0.230469,0.0078 0.335938,0.02734 0.101562,0.01953 0.191406,0.05469 0.261718,0.101563 l 0.171875,0.203125 c 0.04297,0.08203 0.0625,0.191406 0.0625,0.320312 0,0.132813 -0.01953,0.238281 -0.05469,0.324219 l -0.164063,0.238281 c -0.07422,0.06641 -0.167968,0.113281 -0.28125,0.148438 -0.113281,0.03516 -0.222656,0.05078 -0.324218,0.05078 -0.175782,0 -0.355469,-0.03125 -0.539063,-0.08984 -0.1875,-0.05859 -0.347656,-0.132812 -0.484375,-0.222656 h -0.03906 v 0.503906 c 0.125,0.05859 0.285156,0.109375 0.476562,0.160156 0.195313,0.04687 0.394531,0.07031 0.59375,0.07031 0.195313,0 0.375,-0.02734 0.539063,-0.08203 0.164062,-0.05469 0.308593,-0.136719 0.429687,-0.25 0.109375,-0.101563 0.191406,-0.222657 0.253906,-0.359375 0.05859,-0.140625 0.08984,-0.289063 0.08984,-0.457032 0,-0.164062 -0.02734,-0.300781 -0.07422,-0.40625 -0.05078,-0.105468 -0.117187,-0.191406 -0.195312,-0.261718 -0.06641,-0.0625 -0.152344,-0.113282 -0.253906,-0.15625"
       style="fill:#111111;fill-opacity:1;fill-rule:nonzero;stroke:none" />
    <path
       id="path37"
       d="M 30.941406,52.472656 H 30.40625 v -2.210937 h -0.445312 l -1.753907,2.039062 v 0.558594 H 29.9375 v 1.019531 h 0.46875 v -1.019531 h 0.535156 z m -2.402343,0 1.398437,-1.632812 v 1.632812 h -1.398437"
       style="fill:#111111;fill-opacity:1;fill-rule:nonzero;stroke:none" />
    <path
       id="path39"
       d="M 92.3125,25.664063 H 91.574219 V 22.40625 h -0.375 c -0.0078,0.105469 -0.03125,0.1875 -0.07422,0.25 l -0.175781,0.152344 c -0.05859,0.03516 -0.148438,0.05859 -0.265625,0.07422 -0.117188,0.01953 -0.226563,0.02734 -0.328125,0.02734 v 0.328125 h 0.753906 v 2.425782 H 90.355469 V 26.03125 H 92.3125 v -0.367187"
       style="fill:#111111;fill-opacity:1;fill-rule:nonzero;stroke:none" />
    <path
       id="path41"
       d="m 80.585938,40.535156 h -1.945313 c 0.160156,-0.136718 0.332031,-0.285156 0.515625,-0.445312 0.1875,-0.160156 0.363281,-0.324219 0.539063,-0.492188 0.121093,-0.117187 0.222656,-0.226562 0.308593,-0.324218 0.08594,-0.09766 0.160157,-0.195313 0.222657,-0.296875 0.06641,-0.105469 0.117187,-0.21875 0.152343,-0.335938 0.03516,-0.121094 0.05469,-0.25 0.05469,-0.386719 0,-0.304687 -0.105469,-0.546875 -0.316406,-0.726562 -0.210938,-0.179688 -0.503907,-0.269531 -0.871094,-0.269531 -0.179688,0 -0.367188,0.02344 -0.558594,0.07031 -0.191406,0.04687 -0.34375,0.101563 -0.460937,0.15625 v 0.507813 h 0.02734 c 0.160157,-0.105469 0.328125,-0.183594 0.5,-0.234375 0.171875,-0.05469 0.332032,-0.07813 0.480469,-0.07813 0.21875,0 0.394531,0.05078 0.515625,0.160156 0.125,0.105469 0.1875,0.25 0.1875,0.4375 0,0.207031 -0.05859,0.398437 -0.171875,0.574219 -0.117187,0.179687 -0.328125,0.417968 -0.640625,0.71875 -0.148437,0.144531 -0.304687,0.289062 -0.476562,0.433593 -0.171875,0.144532 -0.339844,0.292969 -0.511719,0.4375 v 0.507813 h 2.449219 v -0.414063"
       style="fill:#111111;fill-opacity:1;fill-rule:nonzero;stroke:none" />
    <path
       id="path43"
       d="m 67.082031,23.140625 c -0.09766,-0.03906 -0.1875,-0.06641 -0.265625,-0.07813 v -0.03516 c 0.191407,-0.03906 0.359375,-0.132813 0.5,-0.285156 0.144532,-0.148438 0.214844,-0.324219 0.214844,-0.523438 0,-0.148437 -0.03125,-0.277344 -0.08984,-0.386719 -0.0625,-0.109375 -0.148437,-0.203125 -0.265625,-0.28125 -0.109375,-0.07031 -0.230468,-0.125 -0.363281,-0.15625 -0.136719,-0.03125 -0.292969,-0.04687 -0.46875,-0.04687 -0.179687,0 -0.363281,0.02344 -0.554687,0.07031 -0.191407,0.04687 -0.347657,0.101562 -0.460938,0.15625 v 0.507812 h 0.02344 c 0.15625,-0.101562 0.316406,-0.179687 0.492187,-0.234375 0.171875,-0.05469 0.335938,-0.08203 0.488281,-0.08203 0.101563,0 0.191407,0.0078 0.269532,0.02344 l 0.222656,0.08984 0.15625,0.160157 0.05469,0.230468 c 0,0.199219 -0.07031,0.347657 -0.21875,0.449219 -0.144531,0.101563 -0.34375,0.15625 -0.589843,0.15625 h -0.167969 v 0.402344 h 0.21875 c 0.121094,0 0.230469,0.0078 0.335937,0.02734 0.101563,0.01953 0.191407,0.05469 0.265625,0.101562 l 0.167969,0.203125 c 0.04297,0.08203 0.0625,0.191406 0.0625,0.320313 0,0.132812 -0.01563,0.238281 -0.05469,0.324218 l -0.164063,0.238282 c -0.07422,0.06641 -0.167969,0.113281 -0.28125,0.148437 -0.113281,0.03516 -0.222656,0.05078 -0.324219,0.05078 -0.175781,0 -0.355468,-0.03125 -0.539062,-0.08984 -0.1875,-0.05859 -0.347656,-0.132813 -0.484375,-0.222657 h -0.03906 v 0.503907 c 0.125,0.05859 0.285157,0.109375 0.476563,0.15625 0.195312,0.05078 0.394531,0.07422 0.59375,0.07422 0.195312,0 0.378906,-0.02734 0.542969,-0.08203 0.160156,-0.05469 0.304687,-0.136719 0.425781,-0.25 0.109375,-0.101562 0.191406,-0.222656 0.253906,-0.359375 0.05859,-0.140625 0.08984,-0.289062 0.08984,-0.457031 0,-0.164063 -0.02734,-0.300781 -0.07422,-0.40625 -0.05078,-0.105469 -0.117187,-0.191406 -0.191406,-0.261719 -0.07031,-0.0625 -0.15625,-0.113281 -0.257813,-0.15625"
       style="fill:#111111;fill-opacity:1;fill-rule:nonzero;stroke:none" />
    <path
       id="path45"
       d="m 107.51953,28.605469 h -0.53906 v -2.210938 h -0.44531 l -1.75,2.039063 v 0.558594 h 1.73047 v 1.019531 h 0.46484 v -1.019531 h 0.53906 z m -2.40625,0 1.40235,-1.632813 v 1.632813 h -1.40235"
       style="fill:#111111;fill-opacity:1;fill-rule:nonzero;stroke:none" />
    <path
       id="path47"
       d="m 152.98047,24.667969 h -0.74219 v -3.257813 h -0.375 c -0.008,0.105469 -0.0312,0.1875 -0.0742,0.25 l -0.17578,0.15625 c -0.0586,0.03125 -0.14844,0.05469 -0.26172,0.07422 -0.12109,0.01563 -0.23047,0.02344 -0.33203,0.02344 v 0.332031 h 0.75391 v 2.421875 h -0.75391 v 0.367187 h 1.96094 v -0.367187"
       style="fill:#111111;fill-opacity:1;fill-rule:nonzero;stroke:none" />
    <path
       id="path49"
       d="m 152.19141,9.703125 h -1.94532 c 0.16016,-0.136719 0.33203,-0.28125 0.51563,-0.441406 0.18359,-0.160156 0.36328,-0.324219 0.53906,-0.496094 0.12109,-0.117187 0.22266,-0.222656 0.30859,-0.320312 0.082,-0.097657 0.16016,-0.199219 0.22266,-0.296875 0.0664,-0.105469 0.11719,-0.21875 0.15234,-0.339844 0.0352,-0.117188 0.0508,-0.246094 0.0508,-0.382813 0,-0.308593 -0.10157,-0.550781 -0.3125,-0.730468 -0.21094,-0.175782 -0.5,-0.265625 -0.8711,-0.265625 -0.17969,0 -0.36719,0.023437 -0.55859,0.070312 -0.19141,0.046875 -0.34766,0.097656 -0.46094,0.152344 v 0.511719 h 0.0234 c 0.16406,-0.105469 0.33203,-0.1875 0.5039,-0.238282 0.17188,-0.050781 0.33204,-0.078125 0.48047,-0.078125 0.21875,0 0.39063,0.054688 0.51563,0.160157 0.125,0.105468 0.1875,0.253906 0.1875,0.441406 0,0.203125 -0.0586,0.394531 -0.17578,0.574219 -0.11328,0.175781 -0.32422,0.414062 -0.63672,0.714843 -0.14844,0.144532 -0.30469,0.289063 -0.47656,0.4375 -0.17188,0.144532 -0.33985,0.289063 -0.51172,0.4375 v 0.503907 h 2.44922 V 9.703125"
       style="fill:#111111;fill-opacity:1;fill-rule:nonzero;stroke:none" />
    <path
       id="path51"
       d="m 136.69922,15.1875 c -0.0977,-0.04297 -0.1875,-0.07031 -0.26563,-0.08203 v -0.03516 c 0.19141,-0.03906 0.35938,-0.132813 0.5,-0.28125 0.14063,-0.152344 0.21094,-0.324219 0.21094,-0.527344 0,-0.148438 -0.0273,-0.277344 -0.0859,-0.386719 -0.0625,-0.109375 -0.15234,-0.203125 -0.26953,-0.28125 -0.10547,-0.07031 -0.22656,-0.121094 -0.35937,-0.15625 -0.13672,-0.03125 -0.29297,-0.04687 -0.46875,-0.04687 -0.17969,0 -0.36328,0.02344 -0.5586,0.07031 -0.1875,0.05078 -0.34375,0.101562 -0.45703,0.15625 V 14.125 h 0.0234 c 0.15234,-0.09766 0.31641,-0.175781 0.49219,-0.230469 0.17187,-0.05469 0.33593,-0.08203 0.48828,-0.08203 0.10156,0 0.1914,0.0078 0.26953,0.02344 l 0.22266,0.08594 0.15625,0.164063 0.0547,0.226562 c 0,0.199219 -0.0742,0.347656 -0.21875,0.453125 -0.14843,0.101563 -0.34375,0.152344 -0.58984,0.152344 h -0.16797 v 0.402344 h 0.21875 c 0.12109,0 0.23047,0.0078 0.33594,0.02734 0.10156,0.01953 0.1914,0.05469 0.26172,0.105469 l 0.17187,0.199219 c 0.0391,0.08594 0.0625,0.191406 0.0625,0.320312 0,0.132813 -0.0195,0.242188 -0.0547,0.328125 l -0.16406,0.234375 c -0.0742,0.06641 -0.16797,0.117188 -0.28125,0.148438 -0.11719,0.03516 -0.22265,0.05078 -0.32812,0.05078 -0.17188,0 -0.35157,-0.02734 -0.53907,-0.08984 -0.18359,-0.05859 -0.34375,-0.132812 -0.48046,-0.222656 h -0.0391 v 0.507813 c 0.125,0.05469 0.28125,0.105468 0.47657,0.15625 0.19531,0.04687 0.39453,0.07031 0.59375,0.07031 0.19531,0 0.375,-0.02734 0.53906,-0.08203 0.16406,-0.05469 0.30859,-0.136719 0.42969,-0.25 0.10937,-0.101563 0.1914,-0.222656 0.2539,-0.359375 0.0586,-0.136719 0.0898,-0.289063 0.0898,-0.453125 0,-0.167969 -0.0273,-0.304688 -0.0781,-0.410156 -0.0469,-0.105469 -0.11328,-0.191407 -0.19141,-0.261719 -0.0664,-0.0625 -0.15234,-0.113281 -0.2539,-0.152344 m 30.49219,0.488281 h -0.53907 v -2.210937 h -0.44531 l -1.75,2.039062 V 16.0625 h 1.73047 v 1.019531 h 0.46484 V 16.0625 h 0.53907 z m -2.40625,0 1.40234,-1.632812 v 1.632812 h -1.40234"
       style="fill:#111111;fill-opacity:1;fill-rule:nonzero;stroke:none" />
    <path
       id="path53"
       d="m 181.89062,28.332031 c -0.0742,-0.140625 -0.17187,-0.257812 -0.30078,-0.34375 -0.125,-0.08594 -0.25781,-0.144531 -0.40625,-0.175781 -0.14843,-0.03516 -0.32031,-0.05078 -0.51562,-0.05078 l -0.1875,0.0039 -0.21485,0.01563 v -0.960937 h 1.70704 v -0.425782 h -2.17579 v 1.863282 c 0.0977,-0.01953 0.21094,-0.03906 0.33985,-0.05859 0.13281,-0.01953 0.26953,-0.03125 0.41406,-0.03125 0.14844,0 0.28125,0.01563 0.40234,0.03906 0.1211,0.02344 0.22266,0.06641 0.3086,0.128907 l 0.17578,0.207031 c 0.043,0.08594 0.0664,0.191406 0.0664,0.316406 0,0.128906 -0.0195,0.238281 -0.0547,0.335938 -0.0391,0.09766 -0.0898,0.183593 -0.16406,0.25 -0.082,0.08203 -0.17969,0.140625 -0.28516,0.171875 -0.10938,0.03125 -0.21875,0.04687 -0.33594,0.04687 -0.17187,0 -0.34375,-0.02734 -0.52344,-0.08984 -0.17578,-0.05859 -0.33203,-0.128906 -0.46484,-0.214844 h -0.0352 V 29.875 c 0.12891,0.05859 0.28125,0.105469 0.46485,0.148438 0.17969,0.03906 0.37109,0.0625 0.57031,0.0625 0.21094,0 0.39844,-0.03125 0.55859,-0.09375 0.16016,-0.05859 0.30079,-0.144532 0.41797,-0.257813 0.10547,-0.105469 0.19141,-0.238281 0.25,-0.390625 0.0625,-0.152344 0.0937,-0.3125 0.0937,-0.484375 0,-0.210937 -0.0352,-0.386719 -0.10547,-0.527344"
       style="fill:#111111;fill-opacity:1;fill-rule:nonzero;stroke:none" />
    <path
       id="path55"
       d="M 168.04687,53.152344 C 167.97656,53 167.86719,52.875 167.72656,52.777344 c -0.125,-0.08594 -0.24609,-0.144531 -0.35937,-0.171875 -0.1211,-0.02734 -0.25391,-0.04297 -0.40625,-0.04297 -0.17578,0 -0.32813,0.02344 -0.46094,0.06641 -0.13281,0.04297 -0.26563,0.105469 -0.39844,0.1875 0.0312,-0.371093 0.15235,-0.664062 0.35938,-0.882812 0.20703,-0.21875 0.48437,-0.328125 0.83203,-0.328125 0.0977,0 0.1875,0.01172 0.28125,0.03516 0.0898,0.01953 0.16015,0.04297 0.20703,0.07031 h 0.0234 v -0.464844 l -0.19922,-0.04687 c -0.0625,-0.0078 -0.14453,-0.01172 -0.23828,-0.01172 -0.30078,0 -0.5625,0.05469 -0.78907,0.15625 -0.22265,0.101563 -0.40625,0.246094 -0.55078,0.429688 -0.14843,0.191406 -0.25781,0.410156 -0.32812,0.660156 -0.0664,0.246094 -0.10156,0.53125 -0.10156,0.851562 0,0.3125 0.0391,0.578125 0.11328,0.800782 0.0742,0.222656 0.17968,0.398437 0.32031,0.535156 0.11328,0.105469 0.23828,0.1875 0.38672,0.242187 0.14453,0.05859 0.30859,0.08594 0.48437,0.08594 0.35157,0 0.64844,-0.117188 0.89063,-0.351563 0.24219,-0.230468 0.36328,-0.53125 0.36328,-0.898437 0,-0.214844 -0.0352,-0.398438 -0.10938,-0.546875 m -0.58593,1.183594 c -0.13282,0.144531 -0.31641,0.214843 -0.55469,0.214843 -0.10156,0 -0.19531,-0.01563 -0.28125,-0.04687 l -0.24219,-0.15625 c -0.0937,-0.08594 -0.16406,-0.203125 -0.21875,-0.351562 -0.0508,-0.148438 -0.0781,-0.351563 -0.0781,-0.605469 l 0.004,-0.125 0.008,-0.105469 c 0.125,-0.06641 0.24609,-0.117187 0.36328,-0.148437 0.11718,-0.03516 0.24609,-0.05078 0.38281,-0.05078 0.0977,0 0.19531,0.0078 0.28516,0.02344 0.0898,0.01953 0.17187,0.05078 0.25,0.105469 0.10156,0.07031 0.17187,0.15625 0.21875,0.253906 0.043,0.101563 0.0664,0.226563 0.0664,0.375 0,0.269531 -0.0664,0.476563 -0.20312,0.617188"
       style="fill:#111111;fill-opacity:1;fill-rule:nonzero;stroke:none" />
    <path
       id="path57"
       transform="scale(1,-1)"
       d="M 74.765625,-44.929688 H 59.847656 v 44.753907 h 39.78125 V -15.09375 H 74.765625 Z m 0,0"
       style="fill:none;stroke:#111111;stroke-width:0.34999999;stroke-linecap:butt;stroke-linejoin:miter;stroke-miterlimit:4;stroke-opacity:1" />
    <path
       id="path59"
       transform="scale(1,-1)"
       d="m 84.710938,-15.09375 v -19.890625 h 14.917968 v -9.945313 H 74.765625"
       style="fill:none;stroke:#111111;stroke-width:0.34999999;stroke-linecap:butt;stroke-linejoin:miter;stroke-miterlimit:4;stroke-opacity:1" />
    <path
       id="path61"
       transform="scale(1,-1)"
       d="M 99.625,-15.09375 V -34.984375"
       style="fill:none;stroke:#111111;stroke-width:0.34999999;stroke-linecap:butt;stroke-linejoin:miter;stroke-miterlimit:4;stroke-opacity:1" />
    <path
       id="path63"
       transform="scale(1,-1)"
       d="m 99.625,-0.175781 h 14.91797 V -44.929688 H 99.625"
       style="fill:none;stroke:#111111;stroke-width:0.34999999;stroke-linecap:butt;stroke-linejoin:miter;stroke-miterlimit:4;stroke-opacity:1" />
    <path
       id="path65"
       transform="scale(1,-1)"
       d="M 15.09375,-15.09375 H 0.175781 V -59.847656 H 15.09375"
       style="fill:none;stroke:#111111;stroke-width:0.34999999;stroke-linecap:butt;stroke-linejoin:miter;stroke-miterlimit:4;stroke-opacity:1" />
    <path
       id="path67"
       transform="scale(1,-1)"
       d="m 59.847656,-44.929688 v -14.917968 h 54.695314 v 14.917968"
       style="fill:none;stroke:#111111;stroke-width:0.34999999;stroke-linecap:butt;stroke-linejoin:miter;stroke-miterlimit:4;stroke-opacity:1" />
    <path
       id="path69"
       d="m 7.851563,38.277344 c -0.074219,-0.140625 -0.171875,-0.257813 -0.300782,-0.34375 -0.125,-0.08594 -0.261718,-0.144531 -0.40625,-0.175781 -0.148437,-0.03516 -0.320312,-0.05078 -0.515625,-0.05078 l -0.191406,0.0039 -0.210937,0.01563 V 36.765625 H 7.933594 V 36.339844 H 5.757813 v 1.863281 c 0.09375,-0.01953 0.207031,-0.03906 0.339843,-0.05859 0.132813,-0.01953 0.269532,-0.03125 0.414063,-0.03125 0.148437,0 0.28125,0.01563 0.402344,0.03906 0.121093,0.02344 0.222656,0.06641 0.308593,0.128906 l 0.175782,0.207031 c 0.042968,0.08594 0.066406,0.191407 0.066406,0.316407 0,0.128906 -0.019531,0.238281 -0.054688,0.335937 -0.039062,0.09766 -0.089843,0.179688 -0.164062,0.25 -0.082031,0.08203 -0.179688,0.136719 -0.285156,0.171875 -0.109375,0.03125 -0.21875,0.04687 -0.335938,0.04687 -0.171875,0 -0.34375,-0.03125 -0.523437,-0.08984 C 5.925781,39.460938 5.769531,39.390625 5.636719,39.304688 H 5.601563 v 0.515625 c 0.125,0.05859 0.28125,0.105468 0.464843,0.148437 0.179688,0.03906 0.371094,0.0625 0.570313,0.0625 0.210937,0 0.398437,-0.03125 0.558594,-0.09375 0.160156,-0.05859 0.300781,-0.144531 0.417968,-0.257812 0.105469,-0.105469 0.191407,-0.238282 0.25,-0.390625 0.0625,-0.152344 0.09375,-0.3125 0.09375,-0.484375 0,-0.210938 -0.035156,-0.386719 -0.105468,-0.527344"
       style="fill:#111111;fill-opacity:1;fill-rule:nonzero;stroke:none" />
    <path
       id="path71"
       transform="scale(1,-1)"
       d="m 20.066406,-84.707031 v -19.890629 l 19.886719,9.945316 z m 0,0"
       style="fill:none;stroke:#111111;stroke-width:0.34999999;stroke-linecap:butt;stroke-linejoin:miter;stroke-miterlimit:4;stroke-opacity:1" />
    <path
       id="path73"
       transform="scale(1,-1)"
       d="m 39.953125,-94.652344 -14.917969,-24.863286 -4.96875,14.91797"
       style="fill:none;stroke:#111111;stroke-width:0.34999999;stroke-linecap:butt;stroke-linejoin:miter;stroke-miterlimit:4;stroke-opacity:1" />
    <path
       id="path75"
       transform="scale(1,-1)"
       d="M 20.066406,-84.707031 5.148438,-104.59766 25.039063,-119.51563"
       style="fill:none;stroke:#111111;stroke-width:0.34999999;stroke-linecap:butt;stroke-linejoin:miter;stroke-miterlimit:4;stroke-opacity:1" />
    <path
       id="path77"
       transform="scale(1,-1)"
       d="M 20.066406,-104.59766 H 5.148438"
       style="fill:none;stroke:#111111;stroke-width:0.34999999;stroke-linecap:butt;stroke-linejoin:miter;stroke-miterlimit:4;stroke-opacity:1" />
    <path
       id="path79"
       transform="scale(1,-1)"
       d="M 69.789063,-84.707031 V -119.51563 L 89.679688,-99.625 Z m 0,0"
       style="fill:none;stroke:#111111;stroke-width:0.34999999;stroke-linecap:butt;stroke-linejoin:miter;stroke-miterlimit:4;stroke-opacity:1" />
    <path
       id="path81"
       transform="scale(1,-1)"
       d="M 69.789063,-84.707031 79.734375,-99.625 69.789063,-119.51563"
       style="fill:none;stroke:#111111;stroke-width:0.34999999;stroke-linecap:butt;stroke-linejoin:miter;stroke-miterlimit:4;stroke-opacity:1" />
    <path
       id="path83"
       transform="scale(1,-1)"
       d="M 79.734375,-99.625 H 104.59766"
       style="fill:none;stroke:#111111;stroke-width:0.34999999;stroke-linecap:butt;stroke-linejoin:miter;stroke-miterlimit:4;stroke-opacity:1" />
    <path
       id="path85"
       transform="scale(1,-1)"
       d="M 69.789063,-84.707031 104.59766,-99.625 69.789063,-119.51563"
       style="fill:none;stroke:#111111;stroke-width:0.34999999;stroke-linecap:butt;stroke-linejoin:miter;stroke-miterlimit:4;stroke-opacity:1" />
    <path
       id="path87"
       d="m 23.691406,100.25 h -0.738281 v -3.257812 h -0.375 c -0.0078,0.105468 -0.03125,0.191406 -0.07422,0.25 l -0.175781,0.15625 c -0.05859,0.03125 -0.148437,0.05469 -0.265625,0.07422 -0.117187,0.01563 -0.226562,0.02344 -0.328125,0.02344 v 0.332031 H 22.48828 V 100.25 h -0.753906 v 0.37109 h 1.957031 V 100.25"
       style="fill:#111111;fill-opacity:1;fill-rule:nonzero;stroke:none" />
    <path
       id="path89"
       d="m 76.402344,102.23828 h -0.738281 v -3.257811 h -0.378907 c -0.0039,0.105469 -0.03125,0.191406 -0.07422,0.253906 l -0.175782,0.152344 c -0.05859,0.03516 -0.148437,0.05859 -0.261718,0.07422 -0.117188,0.01563 -0.226563,0.02734 -0.328125,0.02734 v 0.328125 h 0.75 v 2.421876 h -0.75 v 0.3711 h 1.957031 v -0.3711"
       style="fill:#111111;fill-opacity:1;fill-rule:nonzero;stroke:none" />
    <path
       id="path91"
       transform="scale(1,-1)"
       d="m 154.32422,-84.707031 v -19.890629 l -14.91797,9.945316 z m 0,0"
       style="fill:none;stroke:#111111;stroke-width:0.34999999;stroke-linecap:butt;stroke-linejoin:miter;stroke-miterlimit:4;stroke-opacity:1" />
    <g
       style="clip-rule:nonzero"
       id="g95"
       clip-path="url(#clip1)">
      <path
         id="path93"
         transform="scale(1,-1)"
         d="m 144.37891,-30.011719 v -14.917969 h 44.7539 v 44.753907 h -14.91797"
         style="fill:none;stroke:#111111;stroke-width:0.34999999;stroke-linecap:butt;stroke-linejoin:miter;stroke-miterlimit:4;stroke-opacity:1" />
    </g>
    <g
       style="clip-rule:nonzero"
       id="g99"
       clip-path="url(#clip2)">
      <path
         id="path97"
         transform="scale(1,-1)"
         d="m 144.37891,-44.929688 v -14.917968 h 44.7539 v 14.917968"
         style="fill:none;stroke:#111111;stroke-width:0.34999999;stroke-linecap:butt;stroke-linejoin:miter;stroke-miterlimit:4;stroke-opacity:1" />
    </g>
    <path
       id="path101"
       transform="scale(1,-1)"
       d="m 154.32422,-84.707031 14.91797,-9.945313 -14.91797,-9.945316 h 24.86328 l -9.94531,9.945316"
       style="fill:none;stroke:#111111;stroke-width:0.34999999;stroke-linecap:butt;stroke-linejoin:miter;stroke-miterlimit:4;stroke-opacity:1" />
    <path
       id="path103"
       transform="scale(1,-1)"
       d="m 179.1875,-104.59766 v -14.91797"
       style="fill:none;stroke:#111111;stroke-width:0.34999999;stroke-linecap:butt;stroke-linejoin:miter;stroke-miterlimit:4;stroke-opacity:1" />
    <path
       id="path105"
       d="m 155.96094,109.20313 h -0.73828 v -3.25782 h -0.375 c -0.008,0.10157 -0.0312,0.1875 -0.0742,0.25 l -0.17578,0.15235 c -0.0586,0.0352 -0.14844,0.0586 -0.26563,0.0742 -0.11719,0.0195 -0.22656,0.0273 -0.32812,0.0273 v 0.32812 h 0.7539 v 2.42579 h -0.7539 v 0.36718 h 1.95703 v -0.36718"
       style="fill:#111111;fill-opacity:1;fill-rule:nonzero;stroke:none" />
    <path
       id="path107"
       d="m 156.16797,83.296875 h -1.94531 c 0.16015,-0.136719 0.33593,-0.28125 0.51562,-0.441406 0.1875,-0.160156 0.36719,-0.324219 0.53906,-0.496094 0.1211,-0.117187 0.22266,-0.222656 0.3086,-0.324219 0.0859,-0.09375 0.16015,-0.191406 0.22265,-0.292968 0.0703,-0.105469 0.1211,-0.21875 0.15625,-0.339844 0.0312,-0.121094 0.0508,-0.246094 0.0508,-0.382813 0,-0.308593 -0.10546,-0.550781 -0.3164,-0.730468 -0.21094,-0.179688 -0.5,-0.265625 -0.8711,-0.265625 -0.17968,0 -0.36718,0.02344 -0.55859,0.07031 -0.19141,0.04687 -0.34375,0.09766 -0.45703,0.152344 v 0.511719 h 0.0234 c 0.16015,-0.105469 0.32812,-0.1875 0.5,-0.238282 0.17578,-0.05078 0.33203,-0.07813 0.48047,-0.07813 0.21875,0 0.39453,0.05469 0.51953,0.160157 0.12109,0.105468 0.18359,0.253906 0.18359,0.4375 0,0.207031 -0.0586,0.398437 -0.17187,0.578125 -0.11719,0.175781 -0.32813,0.414062 -0.63672,0.714843 -0.14844,0.144532 -0.3086,0.289063 -0.48047,0.4375 -0.16797,0.144532 -0.33985,0.289063 -0.50781,0.433594 v 0.511719 h 2.44531 v -0.417969"
       style="fill:#111111;fill-opacity:1;fill-rule:nonzero;stroke:none" />
    <path
       id="path109"
       d="m 21.910156,82.304688 h -1.945312 c 0.160156,-0.136719 0.332031,-0.285157 0.515625,-0.445313 0.183594,-0.160156 0.363281,-0.324219 0.539062,-0.492187 0.121094,-0.121094 0.222657,-0.226563 0.308594,-0.324219 0.08203,-0.09766 0.160156,-0.195313 0.222656,-0.296875 0.06641,-0.105469 0.117188,-0.21875 0.152344,-0.335938 0.03516,-0.121093 0.05469,-0.25 0.05469,-0.386718 0,-0.304688 -0.105469,-0.546875 -0.316407,-0.726563 -0.210937,-0.179687 -0.503906,-0.269531 -0.871093,-0.269531 -0.179688,0 -0.367188,0.02344 -0.558594,0.07031 -0.191406,0.04687 -0.347656,0.101563 -0.460938,0.15625 v 0.511719 h 0.02344 c 0.164062,-0.109375 0.332031,-0.1875 0.503906,-0.238281 0.171875,-0.05078 0.332031,-0.07813 0.480469,-0.07813 0.21875,0 0.390625,0.05078 0.515625,0.160156 0.125,0.105469 0.1875,0.25 0.1875,0.4375 0,0.207031 -0.05859,0.398438 -0.171875,0.574219 -0.117188,0.179687 -0.328125,0.417969 -0.640625,0.71875 -0.148438,0.144531 -0.304688,0.289062 -0.476563,0.433594 -0.171875,0.144531 -0.339843,0.292968 -0.511718,0.4375 v 0.507812 h 2.449218 v -0.414062"
       style="fill:#111111;fill-opacity:1;fill-rule:nonzero;stroke:none" />
    <path
       id="path111"
       d="m 71.636719,124.07422 h -1.945313 c 0.160157,-0.13672 0.332032,-0.28516 0.515625,-0.44531 0.183594,-0.15625 0.363282,-0.32422 0.535157,-0.49219 0.121093,-0.11719 0.226562,-0.22656 0.3125,-0.32422 0.08203,-0.0977 0.160156,-0.19531 0.222656,-0.29687 0.06641,-0.10547 0.117187,-0.21875 0.152344,-0.33594 0.03516,-0.1211 0.05078,-0.25 0.05078,-0.38672 0,-0.30469 -0.101563,-0.54688 -0.316406,-0.72656 -0.207032,-0.17969 -0.5,-0.26953 -0.867188,-0.26953 -0.183594,0 -0.367187,0.0234 -0.558594,0.0703 -0.191406,0.0469 -0.347656,0.10156 -0.460937,0.15625 v 0.51172 h 0.02344 c 0.164063,-0.10938 0.332032,-0.1875 0.503907,-0.23828 0.171875,-0.0508 0.332031,-0.0781 0.476562,-0.0781 0.222656,0 0.394531,0.0508 0.519531,0.16016 0.125,0.10547 0.1875,0.25 0.1875,0.4375 0,0.20703 -0.05859,0.39843 -0.175781,0.57422 -0.113281,0.17968 -0.324219,0.41796 -0.636719,0.71875 -0.148437,0.14453 -0.308593,0.28906 -0.476562,0.43359 -0.171875,0.14453 -0.339844,0.29297 -0.511719,0.4375 v 0.50781 h 2.449219 v -0.41406"
       style="fill:#111111;fill-opacity:1;fill-rule:nonzero;stroke:none" />
    <path
       id="path113"
       d="m 71.0625,80.824219 c -0.101562,-0.04297 -0.191406,-0.06641 -0.269531,-0.08203 v -0.03125 c 0.195312,-0.03906 0.359375,-0.136719 0.503906,-0.285157 0.140625,-0.148437 0.210938,-0.324218 0.210938,-0.527343 0,-0.144532 -0.03125,-0.273438 -0.08984,-0.382813 -0.05859,-0.113281 -0.148438,-0.207031 -0.265625,-0.285156 -0.105469,-0.07031 -0.230469,-0.121094 -0.363281,-0.152344 -0.132813,-0.03125 -0.289063,-0.05078 -0.464844,-0.05078 -0.179688,0 -0.367188,0.02344 -0.558594,0.07422 -0.191406,0.04687 -0.34375,0.09766 -0.460937,0.15625 v 0.507812 h 0.02344 c 0.15625,-0.101562 0.320313,-0.179687 0.492188,-0.234375 0.171875,-0.05469 0.335937,-0.08203 0.492187,-0.08203 0.09766,0 0.1875,0.0078 0.265625,0.02344 l 0.226563,0.08594 0.15625,0.164062 0.05469,0.226563 c 0,0.199219 -0.07422,0.351562 -0.21875,0.453125 -0.148437,0.101562 -0.34375,0.152344 -0.589844,0.152344 h -0.171875 v 0.40625 h 0.21875 c 0.121094,0 0.230469,0.0078 0.335938,0.02734 0.105469,0.01563 0.191406,0.05078 0.265625,0.101563 l 0.171875,0.199219 c 0.03906,0.08594 0.0625,0.191406 0.0625,0.324218 0,0.128907 -0.01953,0.238282 -0.05859,0.324219 l -0.164062,0.234375 c -0.07031,0.06641 -0.164063,0.117188 -0.277344,0.152344 -0.117188,0.03125 -0.226563,0.05078 -0.328125,0.05078 -0.171875,0 -0.351563,-0.03125 -0.539063,-0.08984 -0.1875,-0.05859 -0.347656,-0.136718 -0.484375,-0.226562 h -0.03906 v 0.507812 c 0.125,0.05469 0.285156,0.109375 0.480469,0.15625 0.195312,0.04687 0.390625,0.07031 0.59375,0.07031 0.195312,0 0.375,-0.02734 0.539062,-0.07813 0.164063,-0.05469 0.304688,-0.140625 0.429688,-0.253906 0.105468,-0.101563 0.191406,-0.222657 0.25,-0.359375 0.0625,-0.136719 0.08984,-0.289063 0.08984,-0.453125 0,-0.167969 -0.02344,-0.300782 -0.07422,-0.410157 -0.05078,-0.101562 -0.113282,-0.191406 -0.191407,-0.261718 -0.07031,-0.05859 -0.15625,-0.113282 -0.253906,-0.152344"
       style="fill:#111111;fill-opacity:1;fill-rule:nonzero;stroke:none" />
    <path
       id="path115"
       d="m 43.214844,94.746094 c -0.101563,-0.03906 -0.1875,-0.06641 -0.265625,-0.08203 v -0.03125 c 0.191406,-0.03906 0.359375,-0.132813 0.5,-0.285157 0.140625,-0.148437 0.210937,-0.324218 0.210937,-0.523437 0,-0.148438 -0.02734,-0.277344 -0.08984,-0.386719 -0.05859,-0.109375 -0.144532,-0.203125 -0.261719,-0.28125 -0.109375,-0.07031 -0.230469,-0.125 -0.367188,-0.15625 -0.132812,-0.03125 -0.289062,-0.05078 -0.464843,-0.05078 -0.179688,0 -0.367188,0.02734 -0.554688,0.07422 -0.195312,0.04687 -0.347656,0.09766 -0.460937,0.15625 V 93.6875 h 0.02344 c 0.152344,-0.101562 0.316406,-0.179687 0.488281,-0.234375 0.175782,-0.05469 0.339844,-0.08203 0.492188,-0.08203 0.101562,0 0.191406,0.0078 0.269531,0.02344 l 0.222656,0.08984 0.15625,0.160156 0.05469,0.230469 c 0,0.195313 -0.07031,0.347656 -0.21875,0.449219 -0.144531,0.101562 -0.34375,0.15625 -0.589844,0.15625 h -0.167969 v 0.402344 h 0.21875 c 0.117188,0 0.230469,0.0078 0.332032,0.02734 0.105468,0.01953 0.195312,0.05469 0.265625,0.101563 l 0.171875,0.203125 c 0.04297,0.08203 0.0625,0.191406 0.0625,0.320312 0,0.128907 -0.01953,0.238282 -0.05469,0.324219 l -0.167969,0.238281 c -0.07031,0.0625 -0.164062,0.113282 -0.277343,0.148438 -0.113282,0.03516 -0.222657,0.05078 -0.328125,0.05078 -0.171875,0 -0.351563,-0.03125 -0.535157,-0.08984 -0.1875,-0.05859 -0.351562,-0.136718 -0.488281,-0.226562 h -0.03516 v 0.507812 c 0.125,0.05859 0.285156,0.109375 0.476562,0.15625 0.195313,0.04687 0.394532,0.07422 0.59375,0.07422 0.195313,0 0.375,-0.02734 0.539063,-0.08203 0.164062,-0.05469 0.308594,-0.140625 0.429687,-0.25 0.109375,-0.105469 0.191407,-0.222656 0.253907,-0.363281 0.05859,-0.136719 0.08984,-0.289063 0.08984,-0.453125 0,-0.164063 -0.02734,-0.300782 -0.07813,-0.40625 -0.04687,-0.105469 -0.113281,-0.191407 -0.191406,-0.261719 -0.07031,-0.0625 -0.152344,-0.113281 -0.253906,-0.15625"
       style="fill:#111111;fill-opacity:1;fill-rule:nonzero;stroke:none" />
    <path
       id="path117"
       d="m 137.69531,94.746094 c -0.10156,-0.03906 -0.1914,-0.06641 -0.26953,-0.08203 v -0.03125 c 0.19531,-0.03906 0.35938,-0.132813 0.50391,-0.285157 0.14062,-0.148437 0.21093,-0.324218 0.21093,-0.523437 0,-0.148438 -0.0312,-0.277344 -0.0898,-0.386719 -0.0586,-0.109375 -0.14844,-0.203125 -0.26562,-0.28125 -0.10547,-0.07031 -0.23047,-0.125 -0.36329,-0.15625 -0.13281,-0.03125 -0.28906,-0.05078 -0.46484,-0.05078 -0.17969,0 -0.36719,0.02734 -0.55859,0.07422 -0.19141,0.04687 -0.34375,0.09766 -0.46094,0.15625 V 93.6875 h 0.0273 c 0.15235,-0.101562 0.31641,-0.179687 0.48828,-0.234375 0.17188,-0.05469 0.33594,-0.08203 0.49219,-0.08203 0.0977,0 0.1875,0.0078 0.26953,0.02344 l 0.22266,0.08984 0.15625,0.160156 0.0547,0.230469 c 0,0.195313 -0.0742,0.347656 -0.21875,0.449219 -0.14844,0.101562 -0.34375,0.15625 -0.58985,0.15625 h -0.17187 v 0.402344 h 0.21875 c 0.12109,0 0.23047,0.0078 0.33594,0.02734 0.10546,0.01953 0.1914,0.05469 0.26562,0.101563 l 0.17188,0.203125 c 0.0391,0.08203 0.0625,0.191406 0.0625,0.320312 0,0.128907 -0.0195,0.238282 -0.0586,0.324219 L 137.5,96.097656 c -0.0703,0.0625 -0.16406,0.113282 -0.27734,0.148438 -0.11719,0.03516 -0.22657,0.05078 -0.32813,0.05078 -0.17187,0 -0.35156,-0.03125 -0.53906,-0.08984 -0.1836,-0.05859 -0.34766,-0.136718 -0.48438,-0.226562 h -0.0352 v 0.507812 c 0.125,0.05859 0.28125,0.109375 0.47656,0.15625 0.19531,0.04687 0.39062,0.07422 0.59375,0.07422 0.19531,0 0.375,-0.02734 0.53906,-0.08203 0.16406,-0.05469 0.3086,-0.140625 0.42969,-0.25 0.10547,-0.105469 0.19141,-0.222656 0.25,-0.363281 0.0625,-0.136719 0.0898,-0.289063 0.0898,-0.453125 0,-0.164063 -0.0234,-0.300782 -0.0742,-0.40625 -0.0508,-0.105469 -0.11328,-0.191407 -0.1914,-0.261719 -0.0703,-0.0625 -0.15625,-0.113281 -0.25391,-0.15625"
       style="fill:#111111;fill-opacity:1;fill-rule:nonzero;stroke:none" />
    <path
       id="path119"
       d="M 25.96875,123.08203 H 25.433594 V 120.875 h -0.445313 l -1.753906,2.03906 v 0.55469 h 1.734375 v 1.01953 h 0.464844 v -1.01953 h 0.535156 z m -2.402344,0 1.402344,-1.63281 v 1.63281 h -1.402344"
       style="fill:#111111;fill-opacity:1;fill-rule:nonzero;stroke:none" />
    <path
       id="path121"
       d="M 91.605469,97.226563 H 91.070313 V 95.015625 H 90.625 l -1.753906,2.039063 v 0.558593 h 1.734375 v 1.019532 h 0.464844 v -1.019532 h 0.535156 z m -2.402344,0 1.402344,-1.632813 v 1.632813 h -1.402344"
       style="fill:#111111;fill-opacity:1;fill-rule:nonzero;stroke:none" />
    <path
       id="path123"
       d="M 172.16406,93.246094 H 171.625 v -2.207031 h -0.44531 l -1.75,2.039062 v 0.558594 h 1.73047 v 1.015625 h 0.46484 v -1.015625 h 0.53906 z m -2.40625,0 1.40235,-1.628906 v 1.628906 h -1.40235"
       style="fill:#111111;fill-opacity:1;fill-rule:nonzero;stroke:none" />
    <path
       id="path125"
       d="m 108.29688,98.941406 c -0.0703,-0.140625 -0.17188,-0.253906 -0.30079,-0.34375 -0.125,-0.08594 -0.26171,-0.144531 -0.40625,-0.175781 -0.14843,-0.03516 -0.32031,-0.05078 -0.51562,-0.05078 l -0.1875,0.0078 -0.21484,0.01172 v -0.960937 h 1.70703 v -0.425782 h -2.17578 v 1.863282 c 0.0977,-0.01953 0.20703,-0.03906 0.33984,-0.05859 0.13281,-0.01953 0.26953,-0.02734 0.41406,-0.02734 0.14844,0 0.28125,0.01172 0.40235,0.03516 0.12109,0.02734 0.22265,0.07031 0.30859,0.132813 l 0.17969,0.203125 c 0.0391,0.08594 0.0625,0.191406 0.0625,0.316406 0,0.128906 -0.0195,0.242188 -0.0547,0.335938 -0.0391,0.09766 -0.0898,0.183593 -0.16406,0.25 -0.082,0.082 -0.17578,0.14062 -0.28516,0.17187 -0.10937,0.0312 -0.21875,0.0508 -0.33594,0.0508 -0.17187,0 -0.34375,-0.0312 -0.52343,-0.0898 -0.17579,-0.0586 -0.33204,-0.13281 -0.46485,-0.214842 h -0.0352 v 0.511722 c 0.1289,0.0586 0.28125,0.10937 0.46484,0.14843 0.17969,0.043 0.375,0.0625 0.57031,0.0625 0.21094,0 0.39844,-0.0312 0.5586,-0.0898 0.16406,-0.0625 0.30078,-0.14844 0.41796,-0.26172 0.10547,-0.10547 0.19141,-0.23437 0.25391,-0.390623 0.0586,-0.152344 0.0898,-0.3125 0.0898,-0.480469 0,-0.214843 -0.0352,-0.386718 -0.10546,-0.53125"
       style="fill:#111111;fill-opacity:1;fill-rule:nonzero;stroke:none" />
    <path
       id="path127"
       d="m 2.878906,104.91016 c -0.074218,-0.14063 -0.175781,-0.25782 -0.304687,-0.34766 -0.121094,-0.082 -0.257813,-0.14062 -0.402344,-0.17578 -0.148437,-0.0312 -0.320312,-0.0469 -0.515625,-0.0469 l -0.191406,0.004 -0.210938,0.0156 v -0.96485 H 2.960938 V 102.9727 H 0.785156 v 1.86328 c 0.09375,-0.0234 0.207032,-0.0391 0.339844,-0.0586 0.132813,-0.0195 0.269531,-0.0312 0.410156,-0.0312 0.152344,0 0.285157,0.0117 0.40625,0.0391 0.121094,0.0234 0.222657,0.0664 0.304688,0.1289 l 0.179687,0.20703 c 0.042969,0.0859 0.066407,0.19141 0.066407,0.31641 0,0.125 -0.019532,0.23828 -0.054688,0.33594 -0.039062,0.0977 -0.089844,0.17969 -0.164062,0.25 -0.082032,0.082 -0.179688,0.13672 -0.285157,0.17187 -0.109375,0.0312 -0.21875,0.0469 -0.335937,0.0469 -0.171875,0 -0.34375,-0.0312 -0.523438,-0.0898 -0.179687,-0.0586 -0.332031,-0.1289 -0.464843,-0.21484 H 0.628906 v 0.51563 c 0.125,0.0547 0.28125,0.10546 0.464844,0.14843 0.179688,0.0391 0.371094,0.0625 0.570313,0.0625 0.210937,0 0.398437,-0.0312 0.558593,-0.0937 0.160157,-0.0586 0.300782,-0.14843 0.417969,-0.26172 0.105469,-0.10156 0.1875,-0.23437 0.25,-0.38671 0.0625,-0.15235 0.09375,-0.3125 0.09375,-0.48438 0,-0.21094 -0.035156,-0.38672 -0.105469,-0.52734"
       style="fill:#111111;fill-opacity:1;fill-rule:nonzero;stroke:none" />
    <path
       id="path129"
       d="m 182.88281,103.91406 c -0.0703,-0.14062 -0.17187,-0.2539 -0.30078,-0.34375 -0.12109,-0.0859 -0.25781,-0.14453 -0.40625,-0.17578 -0.14453,-0.0352 -0.31641,-0.0508 -0.51172,-0.0508 l -0.1914,0.004 -0.21094,0.0156 v -0.96094 h 1.70703 v -0.42578 h -2.17969 v 1.86328 c 0.0977,-0.0195 0.21094,-0.0391 0.34375,-0.0586 0.13281,-0.0195 0.26953,-0.0312 0.41016,-0.0312 0.14844,0 0.28515,0.0156 0.40625,0.0391 0.12109,0.0273 0.22265,0.0703 0.30469,0.12891 l 0.17968,0.20703 c 0.043,0.0859 0.0625,0.19141 0.0625,0.31641 0,0.1289 -0.0156,0.24218 -0.0547,0.33593 -0.0352,0.0977 -0.0859,0.1836 -0.16016,0.25 -0.082,0.082 -0.17969,0.14063 -0.28906,0.17188 -0.10547,0.0312 -0.21875,0.0469 -0.33203,0.0469 -0.17188,0 -0.34766,-0.0273 -0.52344,-0.0859 -0.17969,-0.0586 -0.33594,-0.13282 -0.46485,-0.21485 h -0.0352 v 0.51172 c 0.125,0.0586 0.28125,0.10938 0.46484,0.14844 0.17969,0.043 0.3711,0.0625 0.57031,0.0625 0.21094,0 0.39844,-0.0312 0.5586,-0.0898 0.16015,-0.0625 0.30078,-0.14844 0.41406,-0.26172 0.10938,-0.10547 0.19141,-0.23438 0.25391,-0.38672 0.0625,-0.15625 0.0937,-0.31641 0.0937,-0.48438 0,-0.21484 -0.0391,-0.39062 -0.10938,-0.53125"
       style="fill:#111111;fill-opacity:1;fill-rule:nonzero;stroke:none" />
    <path
       id="path131"
       d="M 87.410156,53.195313 C 87.339844,53.054688 87.238281,52.9375 87.109375,52.851563 86.988281,52.765625 86.851563,52.707031 86.703125,52.671875 86.558594,52.640625 86.386719,52.625 86.191406,52.625 L 86,52.628906 l -0.214844,0.01563 v -0.960937 h 1.707032 v -0.425781 h -2.175782 v 1.863281 c 0.09766,-0.01953 0.210938,-0.03906 0.34375,-0.05859 0.128907,-0.01953 0.269532,-0.03125 0.410157,-0.03125 0.148437,0 0.285156,0.01563 0.40625,0.03906 0.121093,0.02344 0.222656,0.06641 0.304687,0.128906 l 0.179688,0.207031 c 0.04297,0.08594 0.0625,0.191406 0.0625,0.316406 0,0.128907 -0.01563,0.238282 -0.05469,0.335938 -0.03516,0.09766 -0.08984,0.179687 -0.160156,0.25 -0.08203,0.08203 -0.179688,0.136719 -0.289063,0.171875 -0.105468,0.03125 -0.21875,0.04687 -0.332031,0.04687 -0.171875,0 -0.347656,-0.03125 -0.523437,-0.08984 -0.179688,-0.05859 -0.335938,-0.128906 -0.46875,-0.214844 h -0.03125 v 0.515625 c 0.125,0.05859 0.277343,0.105469 0.460937,0.148438 0.183594,0.03906 0.375,0.0625 0.570313,0.0625 0.214843,0 0.402343,-0.03125 0.5625,-0.09375 0.160156,-0.05859 0.300781,-0.144531 0.414062,-0.257813 0.109375,-0.105468 0.191406,-0.238281 0.253906,-0.390625 0.0625,-0.152343 0.09375,-0.3125 0.09375,-0.484375 0,-0.210937 -0.03906,-0.386718 -0.109375,-0.527343"
       style="fill:#111111;fill-opacity:1;fill-rule:nonzero;stroke:none" />
    <path
       id="path133"
       d="m 182.96484,117.79297 c -0.0703,-0.14844 -0.17968,-0.27344 -0.32031,-0.37109 -0.125,-0.0859 -0.24609,-0.14454 -0.36328,-0.17188 -0.11719,-0.0273 -0.25,-0.043 -0.40625,-0.043 -0.17188,0 -0.32422,0.0195 -0.45703,0.0625 -0.13281,0.043 -0.26563,0.10547 -0.39844,0.19141 0.0312,-0.3711 0.15234,-0.66797 0.35938,-0.88281 0.20703,-0.21875 0.48437,-0.32813 0.83203,-0.32813 0.0977,0 0.1875,0.0117 0.28125,0.0352 0.0898,0.0195 0.16015,0.043 0.20312,0.0664 h 0.0273 v -0.46484 l -0.19922,-0.043 c -0.0625,-0.008 -0.14453,-0.0117 -0.23828,-0.0117 -0.30079,0 -0.5625,0.0508 -0.78907,0.15235 -0.22265,0.10546 -0.40625,0.24609 -0.55078,0.42968 -0.14844,0.19532 -0.25781,0.41407 -0.32812,0.66016 -0.0664,0.25 -0.10157,0.53125 -0.10157,0.85547 0,0.3125 0.0391,0.57812 0.11329,0.80078 0.0742,0.22266 0.17968,0.39844 0.32031,0.53125 0.11328,0.10937 0.23828,0.19141 0.38672,0.24609 0.14453,0.0547 0.30859,0.082 0.48437,0.082 0.35156,0 0.64844,-0.11328 0.89063,-0.34765 0.24218,-0.23047 0.36328,-0.53125 0.36328,-0.89844 0,-0.21484 -0.0391,-0.39844 -0.10938,-0.55078 m -0.58593,1.1875 c -0.13672,0.14453 -0.31641,0.21484 -0.55469,0.21484 -0.10156,0 -0.19531,-0.0156 -0.28125,-0.0508 l -0.24219,-0.15625 c -0.0937,-0.0859 -0.16406,-0.20312 -0.21875,-0.35156 -0.0508,-0.14453 -0.0781,-0.34766 -0.0781,-0.60547 l 0.004,-0.125 0.008,-0.10156 c 0.125,-0.0703 0.2461,-0.11719 0.36329,-0.15235 0.11718,-0.0312 0.24609,-0.0469 0.38281,-0.0469 0.0977,0 0.1914,0.008 0.28515,0.0234 0.0898,0.0156 0.17188,0.0508 0.2461,0.10156 0.10156,0.0742 0.17578,0.16016 0.22265,0.25781 0.043,0.0977 0.0625,0.22266 0.0625,0.375 0,0.26953 -0.0625,0.47266 -0.19921,0.61719"
       style="fill:#111111;fill-opacity:1;fill-rule:nonzero;stroke:none" />
    <g
       style="clip-rule:nonzero"
       id="g137"
       clip-path="url(#clip3)">
      <path
         id="path135"
         d="m 25.148438,131.71875 c -0.140625,-0.25391 -0.332032,-0.46094 -0.578125,-0.61328 -0.144532,-0.0898 -0.320313,-0.16016 -0.527344,-0.21094 -0.207031,-0.0508 -0.488281,-0.0781 -0.839844,-0.0781 h -0.902344 v 3.61718 h 0.910157 c 0.332031,0 0.601562,-0.0234 0.804687,-0.0664 0.203125,-0.0469 0.386719,-0.1211 0.550781,-0.22266 0.238282,-0.14844 0.429688,-0.35547 0.574219,-0.62109 0.140625,-0.26563 0.210938,-0.56641 0.210938,-0.89453 0,-0.35157 -0.06641,-0.65235 -0.203125,-0.91016 m -0.433594,1.60547 c -0.08984,0.1914 -0.222656,0.33984 -0.402344,0.45703 -0.144531,0.0937 -0.304687,0.15625 -0.476562,0.1875 -0.171875,0.0352 -0.371094,0.0508 -0.605469,0.0508 H 22.78125 v -2.78906 h 0.449219 c 0.222656,0 0.414062,0.0156 0.578125,0.0469 0.160156,0.0312 0.308594,0.0898 0.453125,0.16797 0.195312,0.11328 0.34375,0.26563 0.441406,0.46094 0.09766,0.19531 0.148438,0.43359 0.148438,0.71484 0,0.28125 -0.04687,0.51953 -0.136719,0.70313 m 63.3125,0.68359 H 86.125 v -1.34375 h 1.902344 v -0.42969 H 86.125 v -0.98828 h 1.902344 v -0.42968 h -2.382813 v 3.61718 h 2.382813 z m 73.085936,-3.1914 h -2.30859 v 3.61718 h 0.47656 v -1.74218 h 1.57422 v -0.42579 h -1.57422 v -1.01953 h 1.83203 v -0.42968"
         style="fill:#111111;fill-opacity:1;fill-rule:nonzero;stroke:none" />
    </g>
  </g>
</svg>
