<?xml version="1.0" encoding="UTF-8" standalone="no"?>
<svg
   xmlns:dc="http://purl.org/dc/elements/1.1/"
   xmlns:cc="http://creativecommons.org/ns#"
   xmlns:rdf="http://www.w3.org/1999/02/22-rdf-syntax-ns#"
   xmlns:svg="http://www.w3.org/2000/svg"
   xmlns="http://www.w3.org/2000/svg"
   id="svg32"
   version="1.2"
   viewBox="0 0 361.19449 344.11987"
   height="458.82651"
   width="481.59265">
  <metadata
     id="metadata36">
    <rdf:RDF>
      <cc:Work
         rdf:about="">
        <dc:format>image/svg+xml</dc:format>
        <dc:type
           rdf:resource="http://purl.org/dc/dcmitype/StillImage" />
        <dc:title></dc:title>
      </cc:Work>
    </rdf:RDF>
  </metadata>
  <defs
     id="defs11">
    <clipPath
       id="clip1">
      <path
         id="path2"
         d="m 345,125 h 16.19531 v 17 H 345 Z m 0,0" />
    </clipPath>
    <clipPath
       id="clip2">
      <path
         id="path5"
         d="m 279,328 h 16 v 16.12109 h -16 z m 0,0" />
    </clipPath>
    <clipPath
       id="clip3">
      <path
         id="path8"
         d="m 65,328 h 17 v 16.12109 H 65 Z m 0,0" />
    </clipPath>
  </defs>
  <rect
     y="2.99371e-06"
     x="0"
     height="344.11987"
     width="361.19449"
     id="rect843"
     style="opacity:1;fill:#ffffff;fill-opacity:1;stroke:none;stroke-width:1.17457473;stroke-linecap:round;stroke-linejoin:round;stroke-miterlimit:4;stroke-dasharray:none;stroke-dashoffset:0;stroke-opacity:1" />
  <g
     transform="translate(0,-1.3305664e-5)"
     id="surface40">
    <path
       id="path13"
       d="m 188.48047,7.882813 c 0,4.351562 -3.53125,7.882812 -7.88281,7.882812 -4.35547,0 -7.88282,-3.53125 -7.88282,-7.882812 C 172.71484,3.527344 176.24219,0 180.59766,0 c 4.35156,0 7.88281,3.527344 7.88281,7.882813 z m 0,0"
       style="fill:#000000;fill-opacity:1;fill-rule:nonzero;stroke:none" />
    <path
       id="path15"
       d="m 15.765625,133.09375 c 0,4.35547 -3.53125,7.88281 -7.882812,7.88281 C 3.527344,140.97656 0,137.44922 0,133.09375 c 0,-4.35156 3.527344,-7.88281 7.882813,-7.88281 4.351562,0 7.882812,3.53125 7.882812,7.88281 z m 0,0"
       style="fill:#000000;fill-opacity:1;fill-rule:nonzero;stroke:none" />
    <g
       style="clip-rule:nonzero"
       id="g19"
       clip-path="url(#clip1)">
      <path
         id="path17"
         d="m 361.19531,133.64062 c 0,4.35157 -3.53125,7.88282 -7.88281,7.88282 -4.35547,0 -7.88281,-3.53125 -7.88281,-7.88282 0,-4.35546 3.52734,-7.88281 7.88281,-7.88281 4.35156,0 7.88281,3.52735 7.88281,7.88281 z m 0,0"
         style="fill:#000000;fill-opacity:1;fill-rule:nonzero;stroke:none" />
    </g>
    <g
       style="clip-rule:nonzero"
       id="g23"
       clip-path="url(#clip2)">
      <path
         id="path21"
         d="m 294.90234,336.23828 c 0,4.35156 -3.52734,7.88281 -7.88281,7.88281 -4.35156,0 -7.88281,-3.53125 -7.88281,-7.88281 0,-4.35547 3.53125,-7.88281 7.88281,-7.88281 4.35547,0 7.88281,3.52734 7.88281,7.88281 z m 0,0"
         style="fill:#000000;fill-opacity:1;fill-rule:nonzero;stroke:none" />
    </g>
    <g
       style="clip-rule:nonzero"
       id="g27"
       clip-path="url(#clip3)">
      <path
         id="path25"
         d="m 81.417969,336.23828 c 0,4.35156 -3.53125,7.88281 -7.882813,7.88281 -4.355468,0 -7.882812,-3.53125 -7.882812,-7.88281 0,-4.35547 3.527344,-7.88281 7.882812,-7.88281 4.351563,0 7.882813,3.52734 7.882813,7.88281 z m 0,0"
         style="fill:#000000;fill-opacity:1;fill-rule:nonzero;stroke:none" />
    </g>
    <path
       id="path29"
       d="M 180.59766,7.882813 73.535156,336.23828 353.3125,133.09375 H 7.882813 L 287.01953,336.23828 Z m 0,0"
       style="fill:none;stroke:#000000;stroke-width:0.75;stroke-linecap:butt;stroke-linejoin:miter;stroke-miterlimit:4;stroke-opacity:1" />
  </g>
</svg>
