<?xml version="1.0" encoding="UTF-8" standalone="no"?>
<svg
   xmlns:dc="http://purl.org/dc/elements/1.1/"
   xmlns:cc="http://creativecommons.org/ns#"
   xmlns:rdf="http://www.w3.org/1999/02/22-rdf-syntax-ns#"
   xmlns:svg="http://www.w3.org/2000/svg"
   xmlns="http://www.w3.org/2000/svg"
   id="svg60"
   version="1.2"
   viewBox="0 0 855.62854 344.42343"
   height="459.23123"
   width="1140.838">
  <metadata
     id="metadata64">
    <rdf:RDF>
      <cc:Work
         rdf:about="">
        <dc:format>image/svg+xml</dc:format>
        <dc:type
           rdf:resource="http://purl.org/dc/dcmitype/StillImage" />
        <dc:title></dc:title>
      </cc:Work>
    </rdf:RDF>
  </metadata>
  <defs
     id="defs17">
    <clipPath
       id="clip1">
      <path
         id="path2"
         d="m 839,125 h 16.62891 v 17 H 839 Z m 0,0" />
    </clipPath>
    <clipPath
       id="clip2">
      <path
         id="path5"
         d="m 773,328 h 17 v 16.42187 h -17 z m 0,0" />
    </clipPath>
    <clipPath
       id="clip3">
      <path
         id="path8"
         d="m 560,328 h 16 v 16.42187 h -16 z m 0,0" />
    </clipPath>
    <clipPath
       id="clip4">
      <path
         id="path11"
         d="m 279,328 h 16 v 16.42187 h -16 z m 0,0" />
    </clipPath>
    <clipPath
       id="clip5">
      <path
         id="path14"
         d="m 65,328 h 17 v 16.42187 H 65 Z m 0,0" />
    </clipPath>
  </defs>
  <rect
     y="1.6214486e-06"
     x="0"
     height="344.42343"
     width="855.62854"
     id="rect874"
     style="opacity:1;fill:#ffffff;fill-opacity:1;stroke:none;stroke-width:2.28483868;stroke-linecap:round;stroke-linejoin:round;stroke-miterlimit:4;stroke-dasharray:none;stroke-dashoffset:0;stroke-opacity:1" />
  <g
     transform="translate(0,1.3862305e-5)"
     id="surface52">
    <path
       id="path19"
       d="m 682.91406,7.882813 c 0,4.351562 -3.53125,7.882812 -7.88281,7.882812 -4.35547,0 -7.88281,-3.53125 -7.88281,-7.882812 C 667.14844,3.527344 670.67578,0 675.03125,0 c 4.35156,0 7.88281,3.527344 7.88281,7.882813 z m 0,0"
       style="fill:#000000;fill-opacity:1;fill-rule:nonzero;stroke:none" />
    <path
       id="path21"
       d="m 510.19922,133.09375 c 0,4.35547 -3.52735,7.88281 -7.88281,7.88281 -4.35157,0 -7.88282,-3.52734 -7.88282,-7.88281 0,-4.35156 3.53125,-7.88281 7.88282,-7.88281 4.35546,0 7.88281,3.53125 7.88281,7.88281 z m 0,0"
       style="fill:#000000;fill-opacity:1;fill-rule:nonzero;stroke:none" />
    <g
       style="clip-rule:nonzero"
       id="g25"
       clip-path="url(#clip1)">
      <path
         id="path23"
         d="m 855.62891,133.64062 c 0,4.35157 -3.53125,7.88282 -7.88282,7.88282 -4.35547,0 -7.88281,-3.53125 -7.88281,-7.88282 0,-4.35546 3.52734,-7.88281 7.88281,-7.88281 4.35157,0 7.88282,3.52735 7.88282,7.88281 z m 0,0"
         style="fill:#000000;fill-opacity:1;fill-rule:nonzero;stroke:none" />
    </g>
    <g
       style="clip-rule:nonzero"
       id="g29"
       clip-path="url(#clip2)">
      <path
         id="path27"
         d="m 789.33594,336.23828 c 0,4.35156 -3.52735,7.88281 -7.88282,7.88281 -4.35156,0 -7.88281,-3.53125 -7.88281,-7.88281 0,-4.35547 3.53125,-7.88281 7.88281,-7.88281 4.35547,0 7.88282,3.52734 7.88282,7.88281 z m 0,0"
         style="fill:#000000;fill-opacity:1;fill-rule:nonzero;stroke:none" />
    </g>
    <g
       style="clip-rule:nonzero"
       id="g33"
       clip-path="url(#clip3)">
      <path
         id="path31"
         d="m 575.85156,336.23828 c 0,4.35156 -3.53125,7.88281 -7.88281,7.88281 -4.35547,0 -7.88281,-3.53125 -7.88281,-7.88281 0,-4.35547 3.52734,-7.88281 7.88281,-7.88281 4.35156,0 7.88281,3.52734 7.88281,7.88281 z m 0,0"
         style="fill:#000000;fill-opacity:1;fill-rule:nonzero;stroke:none" />
    </g>
    <path
       id="path35"
       d="M 675.03125,7.882813 567.96875,336.23828 847.74609,133.09375 H 502.31641 l 279.13671,203.14453 z m 0,0"
       style="fill:none;stroke:#000000;stroke-width:0.75;stroke-linecap:butt;stroke-linejoin:miter;stroke-miterlimit:4;stroke-opacity:1" />
    <path
       id="path37"
       d="M 567.96875,336.23828 H 781.45312"
       style="fill:none;stroke:#000000;stroke-width:0.75;stroke-linecap:butt;stroke-linejoin:miter;stroke-miterlimit:4;stroke-opacity:1" />
    <path
       id="path39"
       d="M 502.31641,133.09375 675.03125,7.882813 847.74609,133.09375"
       style="fill:none;stroke:#000000;stroke-width:0.75;stroke-linecap:butt;stroke-linejoin:miter;stroke-miterlimit:4;stroke-opacity:1" />
    <path
       id="path41"
       d="m 188.48047,8.1875 c 0,4.351563 -3.53125,7.882813 -7.88281,7.882813 -4.35547,0 -7.88282,-3.53125 -7.88282,-7.882813 0,-4.355469 3.52735,-7.882812 7.88282,-7.882812 4.35156,0 7.88281,3.527343 7.88281,7.882812 z m 0,0"
       style="fill:#000000;fill-opacity:1;fill-rule:nonzero;stroke:none" />
    <path
       id="path43"
       d="m 15.765625,133.39844 c 0,4.35547 -3.53125,7.88281 -7.882812,7.88281 C 3.527344,141.28125 0,137.75391 0,133.39844 c 0,-4.35157 3.527344,-7.88281 7.882813,-7.88281 4.351562,0 7.882812,3.53124 7.882812,7.88281 z m 0,0"
       style="fill:#000000;fill-opacity:1;fill-rule:nonzero;stroke:none" />
    <path
       id="path45"
       d="m 361.19531,133.94141 c 0,4.35546 -3.53125,7.88281 -7.88281,7.88281 -4.35547,0 -7.88281,-3.52735 -7.88281,-7.88281 0,-4.35157 3.52734,-7.88282 7.88281,-7.88282 4.35156,0 7.88281,3.53125 7.88281,7.88282 z m 0,0"
       style="fill:#000000;fill-opacity:1;fill-rule:nonzero;stroke:none" />
    <g
       style="clip-rule:nonzero"
       id="g49"
       clip-path="url(#clip4)">
      <path
         id="path47"
         d="m 294.90234,336.53906 c 0,4.35547 -3.52734,7.88281 -7.88281,7.88281 -4.35156,0 -7.88281,-3.52734 -7.88281,-7.88281 0,-4.35156 3.53125,-7.88281 7.88281,-7.88281 4.35547,0 7.88281,3.53125 7.88281,7.88281 z m 0,0"
         style="fill:#000000;fill-opacity:1;fill-rule:nonzero;stroke:none" />
    </g>
    <g
       style="clip-rule:nonzero"
       id="g53"
       clip-path="url(#clip5)">
      <path
         id="path51"
         d="m 81.417969,336.53906 c 0,4.35547 -3.53125,7.88281 -7.882813,7.88281 -4.355468,0 -7.882812,-3.52734 -7.882812,-7.88281 0,-4.35156 3.527344,-7.88281 7.882812,-7.88281 4.351563,0 7.882813,3.53125 7.882813,7.88281 z m 0,0"
         style="fill:#000000;fill-opacity:1;fill-rule:nonzero;stroke:none" />
    </g>
    <path
       id="path55"
       d="M 7.882813,133.39844 73.535156,336.53906"
       style="fill:none;stroke:#000000;stroke-width:0.75;stroke-linecap:butt;stroke-linejoin:miter;stroke-miterlimit:4;stroke-opacity:1" />
    <path
       id="path57"
       d="M 287.01953,336.53906 353.3125,133.94141"
       style="fill:none;stroke:#000000;stroke-width:0.75;stroke-linecap:butt;stroke-linejoin:miter;stroke-miterlimit:4;stroke-opacity:1" />
  </g>
</svg>
