<?xml version="1.0" encoding="UTF-8" standalone="no"?>
<!-- Created with Inkscape (http://www.inkscape.org/) -->

<svg
   xmlns:dc="http://purl.org/dc/elements/1.1/"
   xmlns:cc="http://creativecommons.org/ns#"
   xmlns:rdf="http://www.w3.org/1999/02/22-rdf-syntax-ns#"
   xmlns:svg="http://www.w3.org/2000/svg"
   xmlns="http://www.w3.org/2000/svg"
   xmlns:sodipodi="http://sodipodi.sourceforge.net/DTD/sodipodi-0.dtd"
   xmlns:inkscape="http://www.inkscape.org/namespaces/inkscape"
   width="32.999954mm"
   height="32.763229mm"
   viewBox="0 0 32.999954 32.763229"
   version="1.1"
   id="svg8"
   inkscape:version="0.92.4 (5573076, 2020-04-04)"
   sodipodi:docname="graph_logo.svg">
  <defs
     id="defs2" />
  <sodipodi:namedview
     id="base"
     pagecolor="#ffffff"
     bordercolor="#666666"
     borderopacity="1.0"
     inkscape:pageopacity="0.0"
     inkscape:pageshadow="2"
     inkscape:zoom="0.7"
     inkscape:cx="-234.98604"
     inkscape:cy="132.04765"
     inkscape:document-units="mm"
     inkscape:current-layer="layer1"
     showgrid="false"
     fit-margin-top="0"
     fit-margin-left="0"
     fit-margin-right="0"
     fit-margin-bottom="0"
     inkscape:window-width="1920"
     inkscape:window-height="1017"
     inkscape:window-x="-8"
     inkscape:window-y="-8"
     inkscape:window-maximized="1" />
  <metadata
     id="metadata5">
    <rdf:RDF>
      <cc:Work
         rdf:about="">
        <dc:format>image/svg+xml</dc:format>
        <dc:type
           rdf:resource="http://purl.org/dc/dcmitype/StillImage" />
        <dc:title></dc:title>
      </cc:Work>
    </rdf:RDF>
  </metadata>
  <g
     inkscape:label="Layer 1"
     inkscape:groupmode="layer"
     id="layer1"
     transform="translate(-139.26421,-197.22408)">
    <path
       style="fill:#b3b3b3;stroke-width:0.09714096"
       d="m 151.96083,229.89146 c -1.34589,-0.19743 -2.95804,-0.8208 -4.03059,-1.55848 -0.51241,-0.35243 -2.07122,-1.81256 -2.07122,-1.94009 0,-0.19313 0.77571,0.2261 1.26283,0.68247 1.11501,1.04464 2.52908,1.80767 4.07992,2.20152 0.5676,0.14415 1.05047,0.18309 2.18567,0.17627 1.29031,-0.008 1.55632,-0.0388 2.32372,-0.27153 0.47663,-0.14452 1.17605,-0.41793 1.55425,-0.60757 0.67791,-0.3399 1.83503,-1.111 1.95257,-1.30118 0.0332,-0.0537 0.01,-0.24987 -0.0514,-0.43601 -0.14139,-0.42841 -0.0512,-0.84394 0.26454,-1.21921 l 0.24735,-0.29396 -0.55644,-1.54375 c -0.52043,-1.44383 -0.57452,-1.54772 -0.8358,-1.60511 -0.26076,-0.0573 -0.70087,-0.47015 -0.79173,-0.74275 -0.0474,-0.14234 -2.20105,-0.23974 -3.01086,-0.13616 -0.45463,0.0582 -0.53004,0.10116 -0.65908,0.3759 -0.1028,0.21887 -0.26014,0.3498 -0.53431,0.44459 l -0.38859,0.13436 -0.56707,1.55138 -0.56707,1.55138 0.27511,0.28714 c 0.22185,0.23157 0.27521,0.37534 0.27567,0.74279 2.9e-4,0.2506 -0.0332,0.54796 -0.0746,0.6608 -0.0632,0.17264 0.0137,0.27275 0.48543,0.63142 0.30832,0.23444 1.01429,0.65224 1.56882,0.92845 l 1.00823,0.5022 -0.44159,0.0662 c -0.38486,0.0577 -0.52052,0.0244 -1.05596,-0.25935 -0.3379,-0.17906 -0.92061,-0.55577 -1.29492,-0.83713 -0.5897,-0.44326 -0.71947,-0.50232 -0.97199,-0.44233 -0.6738,0.16005 -1.192,-0.0344 -1.4907,-0.55951 -0.15381,-0.27038 -0.19039,-0.2825 -0.85423,-0.28309 -2.16829,-0.002 -4.40584,-0.93331 -6.10411,-2.54087 -2.03692,-1.92811 -3.00639,-4.17376 -2.99219,-6.93099 0.009,-1.71651 0.32193,-2.94852 1.14019,-4.48668 0.37045,-0.69638 0.4194,-0.85228 0.33625,-1.07099 -0.1343,-0.35322 -0.0239,-0.76602 0.26591,-0.99396 0.23855,-0.18763 0.24081,-0.20193 0.11927,-0.75402 -0.19773,-0.89824 -0.15352,-2.84229 0.0868,-3.81699 0.43244,-1.75383 1.28719,-3.28117 2.51441,-4.49294 0.81742,-0.80713 1.41288,-1.23949 2.38539,-1.732 0.64978,-0.32907 2.22175,-0.86635 2.53477,-0.86635 0.28355,0 -0.16046,0.21565 -0.81339,0.39506 -1.55857,0.42824 -3.35693,1.54282 -4.33893,2.68917 -1.56725,1.82952 -2.29123,3.73418 -2.29853,6.04702 -0.004,1.20507 0.16767,2.38269 0.33215,2.28103 0.18842,-0.11645 0.79042,0.24279 0.90194,0.53822 0.0616,0.16334 0.20021,0.31682 0.30791,0.34107 0.10769,0.0242 0.9374,0.17515 1.8438,0.33533 1.4346,0.25352 1.65848,0.27247 1.72908,0.14633 0.13223,-0.23628 0.64514,-0.4536 0.92851,-0.3934 0.23654,0.0503 0.30102,-0.008 0.71348,-0.64955 0.24939,-0.38763 0.61399,-0.99975 0.81022,-1.36028 l 0.35678,-0.6555 -0.24779,-0.29448 c -0.33064,-0.39295 -0.40659,-0.84594 -0.21765,-1.29814 l 0.15075,-0.36078 -0.97874,-1.15201 c -0.94474,-1.11198 -0.9882,-1.14871 -1.25069,-1.05721 -0.40527,0.14128 -1.00778,-0.0534 -1.29296,-0.4178 l -0.23567,-0.30113 -0.94509,0.44769 c -0.5198,0.24623 -1.22479,0.64729 -1.56665,0.89123 -0.34185,0.24394 -0.62155,0.41164 -0.62155,0.37267 0,-0.33962 0.28162,-0.71923 0.76642,-1.03314 0.47617,-0.30831 1.66484,-0.89621 2.17209,-1.07428 0.0935,-0.0328 0.17,-0.15266 0.17,-0.26631 0,-0.52484 0.59157,-1.05908 1.18068,-1.06626 0.29661,-0.004 0.36289,-0.0648 0.75861,-0.70017 0.89118,-1.4309 2.21604,-2.60008 3.8406,-3.38931 1.52526,-0.741 2.23226,-0.89632 4.07992,-0.89632 1.70797,0 2.34319,0.12013 3.76491,0.71199 1.57775,0.65682 3.20256,2.02459 4.17058,3.51081 0.44531,0.68368 0.53207,0.767 0.79908,0.76732 0.56647,7.4e-4 1.22238,0.64125 1.22238,1.19377 0,0.0796 0.11722,0.1742 0.26049,0.21016 0.36695,0.0921 1.7106,0.77324 2.22925,1.13008 2.66992,1.83696 4.32899,5.27072 4.0727,8.42928 -0.0643,0.79243 -0.43514,2.46649 -0.61926,2.79551 -0.18488,0.33036 -0.2362,-0.74089 -0.0658,-1.37368 0.26356,-0.97884 0.29538,-2.66002 0.0708,-3.74123 -0.62369,-3.0026 -2.6216,-5.47604 -5.336,-6.60604 l -0.71511,-0.2977 -0.24313,0.28895 c -0.32252,0.38328 -0.82182,0.54831 -1.22925,0.40628 -0.16867,-0.0588 -0.33823,-0.0736 -0.3768,-0.0328 -0.0386,0.0408 -0.48309,0.57182 -0.98783,1.1801 l -0.91771,1.10597 0.14331,0.28726 c 0.19823,0.39737 0.10262,1.00127 -0.21022,1.3278 l -0.24878,0.25968 0.50907,0.91946 c 0.27999,0.50571 0.64438,1.114 0.80976,1.35178 0.27028,0.38859 0.34131,0.43333 0.70244,0.44239 0.2922,0.007 0.47484,0.0798 0.66978,0.26561 l 0.26803,0.25552 1.60282,-0.28528 c 0.88156,-0.15691 1.69026,-0.30533 1.79711,-0.32984 0.10686,-0.0245 0.25463,-0.18201 0.32839,-0.35003 0.13035,-0.29693 0.63949,-0.60771 0.90546,-0.55269 0.20231,0.0419 0.38311,-1.30881 0.34456,-2.57412 -0.0241,-0.79059 -0.004,-1.11079 0.0662,-1.04083 0.15815,0.15814 0.17945,2.09366 0.0322,2.92454 l -0.13148,0.74184 0.27158,0.30395 c 0.27998,0.31335 0.3432,0.66556 0.17567,0.9786 -0.0749,0.13999 -0.0117,0.32335 0.28891,0.83775 0.77195,1.321 1.26412,3.15152 1.26412,4.70157 0,4.96047 -3.93991,9.16014 -8.81554,9.39674 -0.78459,0.0381 -1.09284,0.0875 -1.09284,0.17513 0,0.0672 -0.15993,0.26252 -0.3554,0.43415 -0.3329,0.29229 -0.39243,0.30937 -0.94037,0.26973 -0.57875,-0.0419 -0.59281,-0.0367 -1.32028,0.48574 -2.06927,1.48603 -4.53129,2.1128 -6.92183,1.76212 z m -1.98547,-3.86896 c 0.13339,-0.40388 0.5096,-0.6979 0.99368,-0.77658 l 0.3627,-0.0589 0.57423,-1.57156 0.57423,-1.57156 -0.2143,-0.28986 c -0.2107,-0.28498 -0.22028,-0.4991 -0.0466,-1.0412 0.0521,-0.16267 -0.0704,-0.32066 -0.64662,-0.83394 -0.39102,-0.34828 -1.03879,-0.87295 -1.43949,-1.16594 -0.71553,-0.52319 -0.73336,-0.52999 -0.99683,-0.38033 -0.2441,0.13867 -0.29277,0.13843 -0.54029,-0.003 -0.26972,-0.15368 -0.28648,-0.14668 -1.97762,0.8257 l -1.70559,0.98069 0.0488,0.36495 c 0.0431,0.32206 0.008,0.40311 -0.29555,0.68972 l -0.34436,0.32477 0.12784,0.67026 c 0.16746,0.87793 0.48213,1.80616 0.83383,2.45964 0.15586,0.2896 0.27148,0.53846 0.25692,0.55301 -0.0145,0.0145 -0.17396,-0.0669 -0.35423,-0.18107 -0.22359,-0.14156 -0.41385,-0.39737 -0.5986,-0.80483 -0.30462,-0.67182 -0.67135,-2.01507 -0.67135,-2.45898 0,-0.20637 -0.0567,-0.31096 -0.19175,-0.35383 -0.29487,-0.0936 -0.58538,-0.52684 -0.58538,-0.873 0,-0.26505 -0.0891,-0.38306 -0.59496,-0.78831 -0.32722,-0.26213 -0.87364,-0.82464 -1.21426,-1.25003 -0.54445,-0.67995 -0.61931,-0.82378 -0.61931,-1.18998 0,-0.2291 0.0167,-0.41654 0.0372,-0.41654 0.0204,0 0.22606,0.28993 0.45694,0.6443 0.43809,0.6724 1.50361,1.82733 1.9522,2.11602 0.20091,0.12929 0.30517,0.14388 0.45503,0.0637 0.29748,-0.1592 0.7382,-0.12421 0.99672,0.0791 l 0.2329,0.18319 1.67445,-0.96934 c 1.46449,-0.8478 1.67446,-0.99987 1.67446,-1.21277 0,-0.14327 0.11574,-0.35154 0.28128,-0.50618 l 0.28128,-0.26276 -0.0851,-0.83974 c -0.1455,-1.4355 -0.47862,-2.85657 -0.66019,-2.81632 -0.26755,0.0593 -0.79939,-0.27091 -0.92767,-0.576 l -0.13268,-0.31555 -1.81151,-0.31965 -1.8115,-0.31965 -0.22509,0.26167 c -0.17611,0.20475 -0.31694,0.26398 -0.64729,0.27227 -0.39933,0.01 -0.43756,0.0366 -0.70532,0.49132 -0.37577,0.63807 -0.80123,1.71213 -1.00378,2.53401 -0.22348,0.90682 -0.22501,3.04337 -0.003,3.94394 0.93917,3.80662 4.00494,6.54979 7.79041,6.97064 1.16384,0.12939 1.31914,0.0991 1.44496,-0.28187 z m 13.85634,0.13848 c 0.93494,-0.18856 2.08378,-0.66349 2.94824,-1.2188 1.85751,-1.19323 3.14255,-2.91509 3.81992,-5.11842 0.23985,-0.7802 0.26226,-0.99001 0.26226,-2.45591 0,-1.47222 -0.0217,-1.67357 -0.26667,-2.4711 -0.14667,-0.47756 -0.46726,-1.25669 -0.71244,-1.7314 -0.39809,-0.77075 -0.46959,-0.85713 -0.66837,-0.80724 -0.2827,0.071 -0.72731,-0.0929 -0.91634,-0.33782 -0.14403,-0.18657 -0.16749,-0.18522 -1.74854,0.10062 -0.8814,0.15935 -1.69795,0.29041 -1.81456,0.29124 -0.13471,0.001 -0.2362,0.0812 -0.27831,0.22008 -0.11641,0.38388 -0.44179,0.6557 -0.78487,0.6557 -0.3772,0 -0.41929,0.10635 -0.71127,1.79711 -0.27221,1.57627 -0.28179,1.98656 -0.0493,2.11368 0.25642,0.14022 0.33256,0.26851 0.33433,0.56331 0.001,0.21916 0.20048,0.36335 1.68859,1.22244 l 1.68711,0.97397 0.2587,-0.18845 c 0.25581,-0.18635 0.56814,-0.1927 1.09769,-0.0223 0.17843,0.0574 0.35527,-0.0727 1.07552,-0.79128 0.47408,-0.473 1.04461,-1.14378 1.26785,-1.49061 l 0.40588,-0.6306 v 0.45424 c 0,0.40851 -0.0582,0.52748 -0.57799,1.18158 -0.3179,0.40004 -0.85338,0.95758 -1.18998,1.23898 -0.41112,0.34371 -0.60388,0.57225 -0.5873,0.69632 0.0366,0.27393 -0.24449,0.802 -0.49962,0.93855 -0.18289,0.0979 -0.2593,0.29047 -0.42224,1.06414 -0.10943,0.51956 -0.33577,1.2733 -0.50299,1.67497 -0.25766,0.61893 -0.3639,0.76397 -0.69655,0.95093 l -0.39252,0.22061 0.33458,-0.66533 c 0.39088,-0.77727 0.79298,-2.00811 0.88878,-2.72053 0.061,-0.45358 0.0482,-0.50704 -0.13586,-0.56544 -0.2675,-0.0849 -0.52452,-0.59474 -0.46085,-0.91417 0.0477,-0.23944 -0.0443,-0.30896 -1.6388,-1.2381 -1.49524,-0.8713 -1.70926,-0.96933 -1.86251,-0.85308 -0.20475,0.15533 -0.57383,0.17795 -0.65885,0.0404 -0.033,-0.0534 -0.13006,-0.0971 -0.21565,-0.0971 -0.21205,0 -1.48619,0.96603 -2.28236,1.73043 -0.5377,0.51626 -0.63585,0.65711 -0.55856,0.80153 0.15234,0.28465 0.10748,0.82434 -0.0893,1.07453 -0.18236,0.23183 -0.18081,0.23892 0.39391,1.79813 l 0.577,1.56538 0.39406,0.0528 c 0.46664,0.0626 0.91697,0.45027 1.00882,0.86847 l 0.063,0.28702 0.79166,-0.0659 c 0.43542,-0.0362 1.07653,-0.12336 1.42469,-0.19358 z m -6.01922,-5.5714 c 0.30396,-0.28318 0.62885,-0.35965 0.93515,-0.22009 0.22926,0.10446 0.29333,0.0671 0.94375,-0.55078 0.38379,-0.36456 1.05673,-0.92243 1.49542,-1.23971 0.63205,-0.45713 0.79793,-0.62758 0.7991,-0.82115 0.002,-0.29668 0.0806,-0.42461 0.34854,-0.56552 0.17526,-0.0922 0.21349,-0.22894 0.26887,-0.96167 0.0355,-0.46981 0.17082,-1.32436 0.30071,-1.89901 l 0.23616,-1.04481 -0.25062,-0.25063 c -0.22366,-0.22366 -0.24497,-0.30532 -0.19813,-0.75921 0.0502,-0.48605 0.03,-0.54316 -0.45473,-1.28835 -0.27897,-0.42886 -0.6575,-1.07035 -0.84117,-1.42554 -0.30277,-0.58551 -0.36209,-0.64584 -0.63529,-0.64616 -0.45818,-7.4e-4 -0.93942,-0.37407 -1.08983,-0.84589 -0.12373,-0.3881 -0.15316,-0.41012 -0.81807,-0.61208 -0.37936,-0.11523 -1.08222,-0.37871 -1.56191,-0.58551 -0.79094,-0.341 -0.89093,-0.36289 -1.07351,-0.235 -0.25714,0.18011 -0.57955,0.17923 -0.93105,-0.003 -0.26092,-0.13493 -0.32045,-0.12383 -0.99087,0.18473 -0.3923,0.18055 -1.09163,0.44572 -1.55406,0.58926 -0.80553,0.25005 -0.84333,0.27457 -0.90156,0.58498 -0.0868,0.46289 -0.63518,0.92155 -1.10241,0.92212 -0.35415,3.7e-4 -0.36856,0.0155 -0.77116,0.80376 -0.22564,0.44183 -0.60868,1.09918 -0.8512,1.46079 -0.37376,0.55729 -0.4246,0.688 -0.33369,0.85786 0.14977,0.27986 0.0327,0.78814 -0.2407,1.04498 l -0.23006,0.21613 0.17977,0.69796 c 0.20314,0.78866 0.36442,1.81459 0.40299,2.5634 0.0215,0.41758 0.0644,0.52293 0.24655,0.60594 0.2328,0.10607 0.43535,0.50307 0.36183,0.70915 -0.0249,0.0697 0.32102,0.38398 0.80414,0.73073 0.46627,0.33465 1.14712,0.88823 1.513,1.23017 0.63181,0.59045 0.67994,0.61658 0.95741,0.51986 0.22881,-0.0798 0.36431,-0.0675 0.62487,0.0568 0.18299,0.0873 0.3537,0.21336 0.37936,0.28023 0.0352,0.0917 0.50691,0.12048 1.92259,0.11712 1.8063,-0.004 1.88462,-0.0125 2.10981,-0.22232 z m -4.97364,-13.705 c 0.46201,-0.15591 1.09138,-0.39953 1.39859,-0.54139 0.49876,-0.23032 0.55856,-0.28917 0.55856,-0.54971 0,-0.31936 0.4532,-0.85967 0.72108,-0.85967 0.1345,0 0.15318,-0.24285 0.15318,-1.99139 0,-1.26284 -0.0355,-1.99139 -0.0971,-1.99139 -0.19592,0 -0.4857,-0.39623 -0.4857,-0.66414 0,-0.26107 -0.0473,-0.29144 -0.89855,-0.57718 -1.1055,-0.37107 -1.76672,-0.50722 -2.46333,-0.50722 -0.37402,0 -0.51473,-0.0331 -0.46719,-0.11008 0.16126,-0.26093 2.06372,0.0528 3.31125,0.54604 0.56276,0.22249 0.61778,0.22773 0.90207,0.0859 0.27652,-0.13795 0.3243,-0.13694 0.55106,0.0116 0.23455,0.15368 0.27359,0.1518 0.70518,-0.0339 1.16463,-0.50102 3.38025,-0.88207 3.54825,-0.61024 0.0484,0.0783 -0.11402,0.11057 -0.55636,0.11057 -0.67079,0 -2.15666,0.34082 -2.90813,0.66705 -0.40583,0.17619 -0.46142,0.23601 -0.46142,0.49662 0,0.21761 -0.0709,0.34107 -0.26714,0.46487 l -0.26713,0.16857 0.0263,1.9671 c 0.0214,1.60226 0.0513,1.96711 0.16136,1.96711 0.21707,0 0.63804,0.57316 0.63804,0.86872 0,0.24218 0.0734,0.30379 0.69127,0.58005 0.66147,0.29577 2.05596,0.78547 2.23673,0.78547 0.0474,0 0.21302,-0.14207 0.36813,-0.3157 0.26309,-0.29452 0.326,-0.31635 0.93711,-0.32522 l 0.65509,-0.01 0.95235,-1.1274 c 0.94409,-1.11764 0.95111,-1.12975 0.81065,-1.39904 -0.21006,-0.40272 -0.17371,-0.83053 0.10555,-1.24203 0.28519,-0.42026 0.28272,-0.43189 -0.26376,-1.2415 -2.27074,-3.36411 -6.81447,-4.76249 -10.6492,-3.2774 -1.7851,0.69133 -3.41886,2.05169 -4.39161,3.65672 l -0.31316,0.51671 0.26158,0.31087 c 0.22202,0.26386 0.25488,0.37803 0.21729,0.75507 -0.0244,0.24431 -0.0741,0.5319 -0.1105,0.63908 -0.0519,0.15264 0.13793,0.43678 0.87557,1.31096 l 0.94177,1.11608 0.56835,-0.0328 c 0.54084,-0.0311 0.58368,-0.0165 0.88476,0.30379 0.17403,0.18509 0.37553,0.34209 0.44779,0.34889 0.0723,0.007 0.5094,-0.1152 0.97141,-0.27111 z m 4.01504,23.01218 c -0.28399,-0.0414 -0.53827,-0.0971 -0.56507,-0.12392 -0.13742,-0.13742 0.77622,-0.27362 2.01767,-0.3008 1.07166,-0.0235 1.57463,-0.0805 2.16935,-0.24584 1.44711,-0.40243 2.75396,-1.12421 3.85121,-2.12704 0.50493,-0.46148 1.25159,-0.87833 1.25159,-0.69875 0,0.14254 -1.18196,1.29566 -1.78376,1.74023 -1.95207,1.44208 -4.56229,2.10248 -6.94099,1.75612 z m -17.19093,-14.48869 c -0.36479,-1.26026 -0.43421,-1.84785 -0.38449,-3.25434 0.0499,-1.41091 0.15351,-1.92167 0.65229,-3.21504 0.27545,-0.71427 0.96488,-1.85555 1.50972,-2.4992 l 0.24669,-0.29142 -0.067,0.43414 c -0.0414,0.2683 -0.22639,0.67181 -0.48425,1.0563 -0.49034,0.73112 -0.94141,1.77399 -1.2177,2.81529 -0.26392,0.99469 -0.28259,2.96627 -0.0374,3.95125 0.17822,0.71602 0.2052,1.32675 0.0693,1.56952 -0.0571,0.10197 -0.14243,-0.0664 -0.28718,-0.5665 z m 29.31617,-10.32788 c -0.0662,-0.0798 -0.24403,-0.40652 -0.39517,-0.72611 -1.06555,-2.25309 -3.15111,-4.04894 -5.53098,-4.76265 -0.9619,-0.28846 -1.20244,-0.38458 -1.13393,-0.45308 0.0313,-0.0313 0.35385,0.0219 0.71683,0.11819 2.9394,0.77972 5.18836,2.75676 6.37524,5.60441 0.16398,0.39345 0.1563,0.44611 -0.032,0.21924 z"
       id="path831"
       inkscape:connector-curvature="0" />
  </g>
</svg>
