<?xml version="1.0" encoding="UTF-8" standalone="no"?>
<svg
   xmlns:dc="http://purl.org/dc/elements/1.1/"
   xmlns:cc="http://creativecommons.org/ns#"
   xmlns:rdf="http://www.w3.org/1999/02/22-rdf-syntax-ns#"
   xmlns:svg="http://www.w3.org/2000/svg"
   xmlns="http://www.w3.org/2000/svg"
   xmlns:sodipodi="http://sodipodi.sourceforge.net/DTD/sodipodi-0.dtd"
   xmlns:inkscape="http://www.inkscape.org/namespaces/inkscape"
   id="svg32"
   version="1.2"
   viewBox="0 0 361.19449 344.11987"
   height="458.82651"
   width="481.59265"
   sodipodi:docname="2_2_c5_c.svg"
   inkscape:version="0.92.4 (5573076, 2020-04-04)">
  <sodipodi:namedview
     pagecolor="#ffffff"
     bordercolor="#666666"
     borderopacity="1"
     objecttolerance="10"
     gridtolerance="10"
     guidetolerance="10"
     inkscape:pageopacity="0"
     inkscape:pageshadow="2"
     inkscape:window-width="1920"
     inkscape:window-height="1017"
     id="namedview22"
     showgrid="false"
     inkscape:pagecheckerboard="true"
     inkscape:zoom="0.51435564"
     inkscape:cx="-1.2540989"
     inkscape:cy="229.41325"
     inkscape:window-x="-8"
     inkscape:window-y="-8"
     inkscape:window-maximized="1"
     inkscape:current-layer="svg32" />
  <metadata
     id="metadata36">
    <rdf:RDF>
      <cc:Work
         rdf:about="">
        <dc:format>image/svg+xml</dc:format>
        <dc:type
           rdf:resource="http://purl.org/dc/dcmitype/StillImage" />
        <dc:title></dc:title>
      </cc:Work>
    </rdf:RDF>
  </metadata>
  <defs
     id="defs11">
    <clipPath
       id="clip1">
      <path
         id="path2"
         d="m 345,125 h 16.19531 v 17 H 345 Z m 0,0" />
    </clipPath>
    <clipPath
       id="clip2">
      <path
         id="path5"
         d="m 279,328 h 16 v 16.12109 h -16 z m 0,0" />
    </clipPath>
    <clipPath
       id="clip3">
      <path
         id="path8"
         d="m 65,328 h 17 v 16.12109 H 65 Z m 0,0" />
    </clipPath>
  </defs>
  <path
     inkscape:connector-curvature="0"
     style="fill:#000000;fill-opacity:1;fill-rule:nonzero;stroke:none"
     d="m 188.48047,7.8827997 c 0,4.3515623 -3.53125,7.8828123 -7.88281,7.8828123 -4.35547,0 -7.88282,-3.53125 -7.88282,-7.8828123 0,-4.355469 3.52735,-7.882813005664 7.88282,-7.882813005664 4.35156,0 7.88281,3.527344005664 7.88281,7.882813005664 z m 0,0"
     id="path13" />
  <path
     inkscape:connector-curvature="0"
     style="fill:#000000;fill-opacity:1;fill-rule:nonzero;stroke:none"
     d="m 15.765625,133.09374 c 0,4.35547 -3.53125,7.88281 -7.882812,7.88281 C 3.527344,140.97655 0,137.44921 0,133.09374 c 0,-4.35156 3.527344,-7.88281 7.882813,-7.88281 4.351562,0 7.882812,3.53125 7.882812,7.88281 z m 0,0"
     id="path15" />
  <path
     id="path17"
     d="m 361.19531,133.64061 c 0,4.35157 -3.53125,7.88282 -7.88281,7.88282 -4.35547,0 -7.88281,-3.53125 -7.88281,-7.88282 0,-4.35546 3.52734,-7.88281 7.88281,-7.88281 4.35156,0 7.88281,3.52735 7.88281,7.88281 z m 0,0"
     style="clip-rule:nonzero;fill:#000000;fill-opacity:1;fill-rule:nonzero;stroke:none"
     inkscape:connector-curvature="0" />
  <path
     id="path21"
     d="m 294.90234,336.23827 c 0,4.35156 -3.52734,7.88281 -7.88281,7.88281 -4.35156,0 -7.88281,-3.53125 -7.88281,-7.88281 0,-4.35547 3.53125,-7.88281 7.88281,-7.88281 4.35547,0 7.88281,3.52734 7.88281,7.88281 z m 0,0"
     style="clip-rule:nonzero;fill:#000000;fill-opacity:1;fill-rule:nonzero;stroke:none"
     inkscape:connector-curvature="0" />
  <path
     id="path25"
     d="m 81.417969,336.23827 c 0,4.35156 -3.53125,7.88281 -7.882813,7.88281 -4.355468,0 -7.882812,-3.53125 -7.882812,-7.88281 0,-4.35547 3.527344,-7.88281 7.882812,-7.88281 4.351563,0 7.882813,3.52734 7.882813,7.88281 z m 0,0"
     style="clip-rule:nonzero;fill:#000000;fill-opacity:1;fill-rule:nonzero;stroke:none"
     inkscape:connector-curvature="0" />
  <path
     inkscape:connector-curvature="0"
     style="fill:none;stroke:#000000;stroke-width:0.75;stroke-linecap:butt;stroke-linejoin:miter;stroke-miterlimit:4;stroke-opacity:1"
     d="M 180.59766,7.8827997 73.535156,336.23827 353.3125,133.09374 H 7.882813 L 287.01953,336.23827 Z m 0,0"
     id="path29" />
</svg>
