<?xml version="1.0" encoding="UTF-8" standalone="no"?>
<svg
   xmlns:dc="http://purl.org/dc/elements/1.1/"
   xmlns:cc="http://creativecommons.org/ns#"
   xmlns:rdf="http://www.w3.org/1999/02/22-rdf-syntax-ns#"
   xmlns:svg="http://www.w3.org/2000/svg"
   xmlns="http://www.w3.org/2000/svg"
   xmlns:sodipodi="http://sodipodi.sourceforge.net/DTD/sodipodi-0.dtd"
   xmlns:inkscape="http://www.inkscape.org/namespaces/inkscape"
   id="svg60"
   version="1.2"
   viewBox="0 0 855.62854 344.42343"
   height="459.23123"
   width="1140.838"
   sodipodi:docname="2_3_disc_g.svg"
   inkscape:version="0.92.4 (5573076, 2020-04-04)">
  <sodipodi:namedview
     pagecolor="#ffffff"
     bordercolor="#666666"
     borderopacity="1"
     objecttolerance="10"
     gridtolerance="10"
     guidetolerance="10"
     inkscape:pageopacity="0"
     inkscape:pageshadow="2"
     inkscape:window-width="1920"
     inkscape:window-height="1017"
     id="namedview37"
     showgrid="false"
     inkscape:pagecheckerboard="true"
     inkscape:zoom="0.24893981"
     inkscape:cx="70.298117"
     inkscape:cy="229.61562"
     inkscape:window-x="-8"
     inkscape:window-y="-8"
     inkscape:window-maximized="1"
     inkscape:current-layer="svg60" />
  <metadata
     id="metadata64">
    <rdf:RDF>
      <cc:Work
         rdf:about="">
        <dc:format>image/svg+xml</dc:format>
        <dc:type
           rdf:resource="http://purl.org/dc/dcmitype/StillImage" />
        <dc:title></dc:title>
      </cc:Work>
    </rdf:RDF>
  </metadata>
  <defs
     id="defs17">
    <clipPath
       id="clip1">
      <path
         id="path2"
         d="m 839,125 h 16.62891 v 17 H 839 Z m 0,0" />
    </clipPath>
    <clipPath
       id="clip2">
      <path
         id="path5"
         d="m 773,328 h 17 v 16.42187 h -17 z m 0,0" />
    </clipPath>
    <clipPath
       id="clip3">
      <path
         id="path8"
         d="m 560,328 h 16 v 16.42187 h -16 z m 0,0" />
    </clipPath>
    <clipPath
       id="clip4">
      <path
         id="path11"
         d="m 279,328 h 16 v 16.42187 h -16 z m 0,0" />
    </clipPath>
    <clipPath
       id="clip5">
      <path
         id="path14"
         d="m 65,328 h 17 v 16.42187 H 65 Z m 0,0" />
    </clipPath>
  </defs>
  <path
     inkscape:connector-curvature="0"
     style="fill:#000000;fill-opacity:1;fill-rule:nonzero;stroke:none"
     d="m 682.91406,7.8828269 c 0,4.3515621 -3.53125,7.8828121 -7.88281,7.8828121 -4.35547,0 -7.88281,-3.53125 -7.88281,-7.8828121 0,-4.355469 3.52734,-7.882813037695 7.88281,-7.882813037695 4.35156,0 7.88281,3.527344037695 7.88281,7.882813037695 z m 0,0"
     id="path19" />
  <path
     inkscape:connector-curvature="0"
     style="fill:#000000;fill-opacity:1;fill-rule:nonzero;stroke:none"
     d="m 510.19922,133.09376 c 0,4.35547 -3.52735,7.88281 -7.88281,7.88281 -4.35157,0 -7.88282,-3.52734 -7.88282,-7.88281 0,-4.35156 3.53125,-7.88281 7.88282,-7.88281 4.35546,0 7.88281,3.53125 7.88281,7.88281 z m 0,0"
     id="path21" />
  <path
     id="path23"
     d="m 855.62891,133.64063 c 0,4.35157 -3.53125,7.88282 -7.88282,7.88282 -4.35547,0 -7.88281,-3.53125 -7.88281,-7.88282 0,-4.35546 3.52734,-7.88281 7.88281,-7.88281 4.35157,0 7.88282,3.52735 7.88282,7.88281 z m 0,0"
     style="clip-rule:nonzero;fill:#000000;fill-opacity:1;fill-rule:nonzero;stroke:none"
     inkscape:connector-curvature="0" />
  <path
     id="path27"
     d="m 789.33594,336.23829 c 0,4.35156 -3.52735,7.88281 -7.88282,7.88281 -4.35156,0 -7.88281,-3.53125 -7.88281,-7.88281 0,-4.35547 3.53125,-7.88281 7.88281,-7.88281 4.35547,0 7.88282,3.52734 7.88282,7.88281 z m 0,0"
     style="clip-rule:nonzero;fill:#000000;fill-opacity:1;fill-rule:nonzero;stroke:none"
     inkscape:connector-curvature="0" />
  <path
     id="path31"
     d="m 575.85156,336.23829 c 0,4.35156 -3.53125,7.88281 -7.88281,7.88281 -4.35547,0 -7.88281,-3.53125 -7.88281,-7.88281 0,-4.35547 3.52734,-7.88281 7.88281,-7.88281 4.35156,0 7.88281,3.52734 7.88281,7.88281 z m 0,0"
     style="clip-rule:nonzero;fill:#000000;fill-opacity:1;fill-rule:nonzero;stroke:none"
     inkscape:connector-curvature="0" />
  <path
     inkscape:connector-curvature="0"
     style="fill:none;stroke:#000000;stroke-width:0.75;stroke-linecap:butt;stroke-linejoin:miter;stroke-miterlimit:4;stroke-opacity:1"
     d="M 675.03125,7.8828269 567.96875,336.23829 847.74609,133.09376 H 502.31641 l 279.13671,203.14453 z m 0,0"
     id="path35" />
  <path
     inkscape:connector-curvature="0"
     style="fill:none;stroke:#000000;stroke-width:0.75;stroke-linecap:butt;stroke-linejoin:miter;stroke-miterlimit:4;stroke-opacity:1"
     d="M 567.96875,336.23829 H 781.45312"
     id="path37" />
  <path
     inkscape:connector-curvature="0"
     style="fill:none;stroke:#000000;stroke-width:0.75;stroke-linecap:butt;stroke-linejoin:miter;stroke-miterlimit:4;stroke-opacity:1"
     d="M 502.31641,133.09376 675.03125,7.8828269 847.74609,133.09376"
     id="path39" />
  <path
     inkscape:connector-curvature="0"
     style="fill:#000000;fill-opacity:1;fill-rule:nonzero;stroke:none"
     d="m 188.48047,8.1875139 c 0,4.3515631 -3.53125,7.8828131 -7.88281,7.8828131 -4.35547,0 -7.88282,-3.53125 -7.88282,-7.8828131 0,-4.355469 3.52735,-7.88281204 7.88282,-7.88281204 4.35156,0 7.88281,3.52734304 7.88281,7.88281204 z m 0,0"
     id="path41" />
  <path
     inkscape:connector-curvature="0"
     style="fill:#000000;fill-opacity:1;fill-rule:nonzero;stroke:none"
     d="m 15.765625,133.39845 c 0,4.35547 -3.53125,7.88281 -7.882812,7.88281 C 3.527344,141.28126 0,137.75392 0,133.39845 c 0,-4.35157 3.527344,-7.88281 7.882813,-7.88281 4.351562,0 7.882812,3.53124 7.882812,7.88281 z m 0,0"
     id="path43" />
  <path
     inkscape:connector-curvature="0"
     style="fill:#000000;fill-opacity:1;fill-rule:nonzero;stroke:none"
     d="m 361.19531,133.94142 c 0,4.35546 -3.53125,7.88281 -7.88281,7.88281 -4.35547,0 -7.88281,-3.52735 -7.88281,-7.88281 0,-4.35157 3.52734,-7.88282 7.88281,-7.88282 4.35156,0 7.88281,3.53125 7.88281,7.88282 z m 0,0"
     id="path45" />
  <path
     id="path47"
     d="m 294.90234,336.53907 c 0,4.35547 -3.52734,7.88281 -7.88281,7.88281 -4.35156,0 -7.88281,-3.52734 -7.88281,-7.88281 0,-4.35156 3.53125,-7.88281 7.88281,-7.88281 4.35547,0 7.88281,3.53125 7.88281,7.88281 z m 0,0"
     style="clip-rule:nonzero;fill:#000000;fill-opacity:1;fill-rule:nonzero;stroke:none"
     inkscape:connector-curvature="0" />
  <path
     id="path51"
     d="m 81.417969,336.53907 c 0,4.35547 -3.53125,7.88281 -7.882813,7.88281 -4.355468,0 -7.882812,-3.52734 -7.882812,-7.88281 0,-4.35156 3.527344,-7.88281 7.882812,-7.88281 4.351563,0 7.882813,3.53125 7.882813,7.88281 z m 0,0"
     style="clip-rule:nonzero;fill:#000000;fill-opacity:1;fill-rule:nonzero;stroke:none"
     inkscape:connector-curvature="0" />
  <path
     inkscape:connector-curvature="0"
     style="fill:none;stroke:#000000;stroke-width:0.75;stroke-linecap:butt;stroke-linejoin:miter;stroke-miterlimit:4;stroke-opacity:1"
     d="M 7.882813,133.39845 73.535156,336.53907"
     id="path55" />
  <path
     inkscape:connector-curvature="0"
     style="fill:none;stroke:#000000;stroke-width:0.75;stroke-linecap:butt;stroke-linejoin:miter;stroke-miterlimit:4;stroke-opacity:1"
     d="M 287.01953,336.53907 353.3125,133.94142"
     id="path57" />
</svg>
